<svg xmlns="http://www.w3.org/2000/svg" style="display: none;"><symbol id="cafe" viewBox="0 0 512 512.00006"><title>cafe</title><path d="m445.707031 14.71875c-1.203125-8.417969-8.398437-14.6875-16.902343-14.71875h-335.984376c-4.148437 0-7.695312 2.984375-8.40625 7.074219l-84.164062 484.890625c-.859375 4.972656.519531 10.074218 3.769531 13.9375 3.253907 3.867187 8.042969 6.097656 13.09375 6.097656h76.980469c8.515625-.03125 15.714844-6.3125 16.902344-14.746094l7.363281-53.519531h27.09375l7.40625 53.527344c1.191406 8.445312 8.414063 14.726562 16.941406 14.738281h85.460938c4.9375.007812 9.636719-2.121094 12.886719-5.839844 3.246093-3.71875 4.726562-8.664062 4.050781-13.554687l-6.757813-48.871094h129.117188l7.382812 53.519531c1.191406 8.433594 8.394532 14.714844 16.910156 14.746094h76.066407c4.9375 0 9.628906-2.136719 12.867187-5.855469 3.242188-3.722656 4.714844-8.660156 4.039063-13.550781zm-327.347656 411.949219c-8.515625.027343-15.71875 6.308593-16.902344 14.746093l-7.363281 53.519532-77.039062-.058594 75.390624-434.289062 50.644532 366.082031zm300.492187 68.265625-7.378906-53.53125c-1.203125-8.425782-8.402344-14.699219-16.914062-14.734375h-129.117188c-4.941406-.007813-9.640625 2.128906-12.886718 5.855469-3.246094 3.722656-4.71875 8.671874-4.035157 13.566406l6.742188 48.84375h-85.460938l-66.152343-477.867188h325.121093l66.148438 477.867188zm0 0"/><path d="m399.464844 288.308594c4.90625-5.398438 7.085937-12.734375 5.921875-19.933594-3.632813-20.601562-32.988281-31.574219-52.734375-36.753906 1.082031-7.382813.96875-14.890625-.332032-22.238282l-2.722656-15.429687c3.679688 1.480469 7.605469 2.265625 11.570313 2.3125 4.414062.015625 8.769531-1.015625 12.707031-3.011719 10.238281-5.433594 15.648438-16.984375 13.269531-28.332031-3.097656-16.164063-17.046875-27.984375-33.503906-28.386719h-132.265625c-4.644531-.046875-9.070312 1.96875-12.082031 5.503906-2.996094 3.636719-4.222657 8.414063-3.347657 13.046876l10.53125 59.730468c1.136719 6.230469 3.042969 12.292969 5.683594 18.050782-27.210937 8.59375-41.222656 22.363281-38.398437 38.46875 5.117187 28.839843 64.28125 44.371093 117.390625 44.371093 45.746094.027344 84.335937-10.742187 98.3125-27.398437zm-29.132813-120.421875c1.082031 3.984375-.675781 8.199219-4.265625 10.238281-1.515625.75-3.191406 1.128906-4.882812 1.109375-3.433594-.082031-6.753906-1.242187-9.496094-3.3125l-.554688-.375c-3.402343-2.628906-5.757812-6.386719-6.640624-10.597656l-2.011719-11.347657h11.160156c8.167969.40625 15.027344 6.277344 16.691406 14.285157zm-45.226562-14.285157 2.5625 14.273438 7.832031 44.441406c2.738281 13.292969-.433594 27.117188-8.6875 37.890625-7.445312 8.984375-18.476562 14.226563-30.148438 14.328125-30.816406-.640625-57.105468-22.488281-63.375-52.667968l-10.277343-58.265626zm-124.585938 114.773438c-.988281-5.574219 8.285157-14.175781 30.488281-20.414062 14.988282 20.578124 38.695313 33.011718 64.144532 33.640624h2.007812c16.636719-.203124 32.332032-7.738281 42.898438-20.59375 3.167968-3.933593 5.800781-8.273437 7.832031-12.902343 26.195313 6.757812 39.527344 16.648437 40.6875 23.253906.265625 2.226563-.542969 4.445313-2.183594 5.972656-8.628906 10.242188-38.964843 21.335938-85.179687 21.335938-59.050782 0-98.390625-17.648438-100.628906-30.292969zm0 0"/><path d="m224.097656 96.308594c2.558594 1.882812 3.351563 4.207031 2.859375 5.433594l-2.433593 5.972656c-1.757813 4.359375.335937 9.316406 4.683593 11.09375 1.023438.421875 2.117188.636718 3.21875.632812 3.472657.003906 6.601563-2.101562 7.910157-5.316406l2.421874-5.972656c3.410157-9.453125-.089843-20.007813-8.464843-25.558594-2.386719-1.773438-3.589844-4.265625-2.738281-5.707031l7.679687-12.800781c2.324219-4.03125.992187-9.179688-2.996094-11.578126-3.988281-2.394531-9.160156-1.15625-11.628906 2.789063l-7.679687 12.800781c-5.355469 9.828125-2.230469 22.125 7.167968 28.210938zm0 0"/><path d="m258.230469 96.308594c2.558593 1.882812 3.355469 4.207031 2.859375 5.433594l-2.433594 5.972656c-1.757812 4.359375.335938 9.316406 4.6875 11.09375 1.019531.421875 2.113281.636718 3.214844.632812 3.472656.003906 6.601562-2.101562 7.910156-5.316406l2.425781-5.972656c3.40625-9.453125-.089843-20.007813-8.464843-25.558594-2.390626-1.773438-3.59375-4.265625-2.742188-5.707031l7.679688-12.800781c2.324218-4.03125.992187-9.179688-2.996094-11.578126-3.988282-2.394531-9.160156-1.15625-11.628906 2.789063l-7.679688 12.800781c-5.351562 9.828125-2.230469 22.125 7.167969 28.210938zm0 0"/><path d="m292.363281 96.308594c2.5625 1.882812 3.355469 4.207031 2.859375 5.433594l-2.433594 5.972656c-1.757812 4.359375.335938 9.316406 4.6875 11.09375 1.019532.421875 2.113282.636718 3.214844.632812 3.472656.003906 6.601563-2.101562 7.910156-5.316406l2.425782-5.972656c3.40625-9.453125-.089844-20.007813-8.464844-25.558594-2.390625-1.773438-3.59375-4.265625-2.742188-5.707031l7.683594-12.800781c2.320313-4.03125.988282-9.179688-3-11.578126-3.988281-2.394531-9.160156-1.15625-11.628906 2.789063l-7.679688 12.800781c-5.351562 9.828125-2.230468 22.125 7.167969 28.210938zm0 0"/><path d="m418.121094 332.800781h-204.800782c-4.714843 0-8.535156 3.820313-8.535156 8.53125 0 4.714844 3.820313 8.535157 8.535156 8.535157h204.800782c4.710937 0 8.53125-3.820313 8.53125-8.535157 0-4.710937-3.820313-8.53125-8.53125-8.53125zm0 0"/><path d="m372.9375 366.933594h-102.402344c-4.710937 0-8.53125 3.820312-8.53125 8.53125 0 4.714844 3.820313 8.535156 8.53125 8.535156h102.402344c4.710938 0 8.53125-3.820312 8.53125-8.535156 0-4.710938-3.820312-8.53125-8.53125-8.53125zm0 0"/></symbol><symbol id="diet" viewBox="0 0 512.002 512.002"><title>diet</title><g> <g> <path d="M197.965,198.867c-4.313-4.721-10.454-7.486-16.847-7.585c-12.859-0.165-23.497,10.087-23.715,22.936 c-0.07,4.142,3.231,7.556,7.372,7.626c0.044,0.001,0.086,0.001,0.13,0.001c4.083,0,7.427-3.275,7.496-7.374 c0.077-4.589,3.849-8.271,8.482-8.191c2.313,0.036,4.446,0.996,6.007,2.704c2.794,3.059,7.539,3.273,10.596,0.479 C200.544,206.67,200.759,201.925,197.965,198.867z"/> </g> </g><g> <g> <path d="M237.867,223.31c-2.299-5.404-6.774-9.669-12.281-11.702c-11.074-4.085-23.419,1.592-27.522,12.653 c-1.441,3.884,0.54,8.2,4.423,9.641c0.86,0.319,1.741,0.47,2.607,0.47c3.047,0,5.911-1.87,7.033-4.894 c1.232-3.322,4.945-5.022,8.265-3.797c1.669,0.616,2.973,1.859,3.67,3.499c1.621,3.811,6.027,5.589,9.837,3.967 C237.712,231.526,239.487,227.122,237.867,223.31z"/> </g> </g><g> <g> <path d="M286.206,156.885c-2.932-2.927-7.681-2.921-10.606,0.011l-7.07,7.084c-2.926,2.932-2.921,7.681,0.011,10.606 c1.463,1.461,3.38,2.191,5.297,2.191c1.922,0,3.844-0.734,5.309-2.202l7.07-7.084C289.143,164.559,289.138,159.81,286.206,156.885 z"/> </g> </g><g> <g> <path d="M239.545,253.709h-9.996c-4.143,0-7.5,3.358-7.5,7.5c0,4.142,3.357,7.5,7.5,7.5h9.996c4.143,0,7.5-3.358,7.5-7.5 C247.045,257.067,243.688,253.709,239.545,253.709z"/> </g> </g><g> <g> <path d="M316.189,253.709h-9.997c-4.143,0-7.5,3.358-7.5,7.5c0,4.142,3.358,7.5,7.5,7.5h9.997c4.142,0,7.5-3.358,7.5-7.5 C323.689,257.067,320.331,253.709,316.189,253.709z"/> </g> </g><g> <g> <path d="M511.761,388.942l-1.953-10.542c-1.245-6.736-7.127-11.625-13.986-11.625c-0.861,0-1.729,0.079-2.583,0.236l-39.76,7.304 l18.006-12.037c4.719-3.154,7.104-8.796,6.075-14.393c-0.286-1.533-0.822-3.004-1.598-4.381l-5.449-9.649 c-1.867-3.315-5.051-5.778-8.726-6.754c-1.8-0.48-3.682-0.587-5.518-0.348c2.005-11.066,3.039-22.368,3.039-33.873 c0-5.105-3.07-9.498-7.455-11.449c5.73-13.628,6.121-29.23,0.457-43.518c-0.459-1.162-1.141-2.199-2.024-3.083 c-0.876-0.876-1.901-1.553-3.064-2.02c-6.787-2.703-13.92-4.073-21.201-4.073c-0.931,0-1.858,0.024-2.782,0.068 c-1.039-20.933-18.364-37.644-39.514-37.644c-2.785,0-5.501,0.296-8.124,0.848c1.822-10.9,0.749-22.303-3.496-33.009 c-0.456-1.177-1.141-2.233-2.072-3.179c-0.896-0.896-1.947-1.587-3.113-2.05c-7.311-2.912-14.995-4.388-22.839-4.388 c-11.816,0-23.119,3.322-32.877,9.498c-3.565-10.327-9.444-20.022-17.658-28.255c-2.406-2.41-5.606-3.738-9.011-3.738 c-3.405,0-6.605,1.328-9.014,3.74l-36.313,36.396c-6.72-5.994-15.563-9.577-25.161-9.577c-2.178,0-4.377,0.191-6.536,0.567 c-7.823,1.362-15.022,5.191-20.541,10.799c-7.077-3.415-15.184-4.58-22.975-3.224c-1.714,0.298-3.377,0.718-4.991,1.23v-28.046 c0-19.314-15.523-35.055-34.725-35.387V87.48c5.878-1.017,10.366-6.14,10.366-12.304V39.137c0-6.892-5.607-12.5-12.5-12.5H61.154 c-6.893,0-12.5,5.608-12.5,12.5v36.039c0,6.164,4.488,11.287,10.366,12.304v15.904c-19.202,0.331-34.724,16.072-34.724,35.387 v218.896C9.322,371.19,0,390.059,0,410.925c0,41.046,36.025,74.44,80.307,74.44l300.187-0.088 c10.246-0.004,19.882-4.507,26.436-12.353c6.384-7.638,9.097-17.559,7.534-27.343l59.957,10.775 c0.83,0.149,1.68,0.225,2.523,0.225c2.99,0,5.855-0.918,8.281-2.652c3.119-2.228,5.23-5.677,5.793-9.46l1.624-10.897 c0.234-1.561,0.208-3.133-0.077-4.674c-1.032-5.572-5.275-9.993-10.81-11.261l-21.133-4.848l39.721-7.297 c3.746-0.688,6.996-2.791,9.152-5.922C511.647,396.447,512.451,392.673,511.761,388.942z M426.021,243.735 c4.515,0,8.954,0.715,13.222,2.124c3.814,11.614,2.386,24.141-3.586,34.489h-20.204l6.447-6.462 c2.926-2.932,2.92-7.681-0.013-10.607c-2.933-2.926-7.682-2.921-10.606,0.012l-3.411,3.419c-1.599-5.265-4.391-9.979-8.061-13.846 C407.253,246.953,416.391,243.735,426.021,243.735z M383.725,206.159c13.545,0,24.564,11.052,24.564,24.637 c0,0.252-0.012,0.501-0.019,0.751c-7.906,2.571-15.193,6.866-21.408,12.699c-0.989-0.375-1.992-0.723-3.022-1.008 c-2.194-11.852-10.181-21.352-20.732-25.789C367.487,210.665,375.085,206.159,383.725,206.159z M344.08,164.381 c5.094,0,10.1,0.824,14.924,2.454c3.877,11.528,3.085,23.911-1.855,34.637c-4.061,3.699-7.356,8.229-9.608,13.321 c-1.339,0.078-2.678,0.226-4.001,0.456c-5.877,1.023-11.357,3.573-15.943,7.271c-1.564-2.86-3.479-5.499-5.673-7.875 l17.199-17.238c2.926-2.932,2.92-7.681-0.013-10.606c-2.932-2.926-7.681-2.921-10.607,0.012l-18.798,18.841 c-3.577-1.691-7.443-2.867-11.506-3.417c1.755-8.95,6.098-17.383,12.816-24.117C319.854,169.26,331.597,164.381,344.08,164.381z M286.61,280.348h-6.501c-1.095-2.786-3.802-4.761-6.977-4.761s-5.882,1.976-6.977,4.761h-7.648 c1.776-2.892,1.417-6.724-1.09-9.226c-2.932-2.926-7.681-2.921-10.607,0.011l-7.069,7.084c-0.635,0.636-1.123,1.361-1.482,2.131 h-15.265c-5.717-8.773-9.206-19.128-9.619-30.268h118.986c-0.413,11.14-3.902,21.495-9.619,30.268h-15.885 c-0.358-0.77-0.848-1.496-1.482-2.132l-7.068-7.084c-2.927-2.931-7.674-2.939-10.606-0.012 C285.192,273.622,284.833,277.455,286.61,280.348z M269.167,235.08c2.827-10.477,12.384-18.208,23.71-18.208 c11.327,0,20.884,7.732,23.711,18.208H269.167z M284.504,142.859c7.134,7.71,11.851,16.864,14.164,26.486 c-3.829,4.161-7.01,8.759-9.519,13.652c-1.139-0.698-2.474-1.107-3.907-1.107h-9.994c-4.142,0-7.5,3.358-7.5,7.5 c0,4.142,3.358,7.5,7.5,7.5h8.767c-0.493,2.071-0.876,4.167-1.154,6.279c-2.978,0.782-5.822,1.896-8.484,3.314 c-4.999-8.627-13.277-15.056-23.085-17.635c-0.003-0.021-0.007-0.042-0.011-0.063c-0.588-3.394-1.614-6.614-3.013-9.607 L284.504,142.859z M148.926,210.535c-0.44-1.23-0.773-2.492-0.992-3.758c-2.151-12.401,6.209-24.249,18.632-26.412 c1.31-0.228,2.641-0.344,3.955-0.344c4.941,0,9.663,1.576,13.654,4.557c1.651,1.234,3.739,1.733,5.771,1.381 c2.032-0.353,3.829-1.526,4.969-3.245c3.521-5.311,8.908-8.835,15.168-9.925c1.313-0.229,2.647-0.344,3.964-0.344 c11.112,0,20.556,7.95,22.454,18.905c0.218,1.255,0.33,2.563,0.332,3.888c0.007,3.882,2.976,7.118,6.844,7.458 c8.385,0.737,15.523,6.014,18.832,13.448c-4.43,5.317-7.501,11.809-8.667,18.936H211.07c-5.318,0-9.881,3.283-11.784,7.929 c-9.41-6.409-20.5-9.862-32.122-9.862c-7.281,0-14.414,1.371-21.206,4.075c-1.152,0.46-2.182,1.139-3.06,2.017 c-0.89,0.89-1.573,1.933-2.021,3.077c-1.726,4.353-2.877,8.828-3.499,13.331c-2.688-3.06-4.582-6.865-5.322-11.135 c-1.764-10.176,3.563-20.308,12.95-24.64C148.534,218.244,150.235,214.192,148.926,210.535z M171.284,278.297l2.046,2.051h-18.013 c-4.044-9.382-4.658-20.061-1.375-30.077c4.274-1.411,8.711-2.125,13.222-2.125c11.301,0,21.932,4.417,29.933,12.436 c1.064,1.067,2.055,2.185,2.986,3.34c1.271,5.754,3.224,11.251,5.74,16.425H194.52l-12.617-12.646 c-2.927-2.931-7.676-2.939-10.606-0.012C168.364,270.616,168.358,275.365,171.284,278.297z M139.344,280.348h-26.737 c1.192-7.265,5.562-13.458,11.628-17.11c3.591,4.811,8.278,8.701,13.678,11.336C138.295,276.52,138.764,278.449,139.344,280.348z M63.654,41.637h55.991v31.039H63.654V41.637z M109.279,87.676v15.693H74.021V87.676H109.279z M39.297,169.187H88 c4.143,0,7.5-3.358,7.5-7.5c0-4.142-3.357-7.5-7.5-7.5H39.297v-15.416c0-11.25,9.124-20.402,20.339-20.402h64.028 c11.216,0,20.34,9.152,20.34,20.402v15.416H130c-4.143,0-7.5,3.358-7.5,7.5c0,4.142,3.357,7.5,7.5,7.5h14.004v6.657 c-8.593,8.425-13.056,20.78-10.852,33.489c0.004,0.025,0.009,0.051,0.013,0.077c-12.032,8.255-18.443,22.931-15.89,37.664 c0.149,0.86,0.336,1.706,0.54,2.543c-3.747,2.066-7.112,4.734-9.996,7.856H39.297V169.187z M39.296,272.472L39.296,272.472H99.11 c-0.796,2.528-1.358,5.159-1.632,7.876h-1.264c-6.903,0-12.52,5.621-12.52,12.53c0,11.909,1.107,23.6,3.252,35.038 c-2.155-0.173-4.365-0.266-6.613-0.266c-9.07,0-17.712,1.439-24.331,4.053c-10.125,3.998-12.924,9.675-13.535,13.603 c-1.073,0.534-2.127,1.098-3.171,1.675V272.472z M134.267,364.607c2.701,2.161,4.352,3.998,5.309,5.323 c-0.09,0.001-0.184,0.002-0.279,0.002c-4.245,0-11.872-1.711-20.545-6.512c-3.229-1.789-6.204-3.81-8.604-5.843 c-2.798-2.371-6.901-2.369-9.697,0.001c-2.4,2.035-5.374,4.055-8.6,5.84c-8.675,4.803-16.302,6.514-20.546,6.514 c-0.097,0-0.19-0.001-0.281-0.002c0.956-1.325,2.607-3.163,5.309-5.325c2.361-1.89,3.356-5.014,2.523-7.921 c-0.834-2.908-3.332-5.031-6.337-5.383c-7.319-0.858-11.947-2.721-14.114-4.077c2.715-1.691,9.579-4.574,21.931-4.574 c10.23,0,17.707,2.151,21.293,4.165c2.281,1.28,5.062,1.28,7.343,0.001c3.588-2.014,11.066-4.165,21.296-4.165 c12.353,0,19.216,2.884,21.93,4.574c-2.166,1.357-6.795,3.219-14.116,4.077c-3.005,0.353-5.504,2.475-6.337,5.384 C130.909,359.594,131.904,362.718,134.267,364.607z M119.264,455.893l0.258,1.39c0.892,4.817,2.773,9.238,5.401,13.082H80.307 c-36.01,0-65.307-26.664-65.307-59.44c0-22.399,13.688-41.935,33.844-52.065c2.315,1.728,5.201,3.218,8.625,4.42 c-1.358,2.319-2.304,4.813-2.527,7.414c-0.296,3.458,0.762,6.742,2.982,9.248c2.933,3.312,7.435,4.991,13.381,4.991 c7.924,0,18.321-3.137,27.811-8.391c2.185-1.209,4.251-2.486,6.185-3.82c1.933,1.333,3.999,2.61,6.185,3.821 c9.49,5.253,19.887,8.389,27.811,8.39h0.001c5.944,0,10.446-1.679,13.378-4.99c2.221-2.506,3.28-5.79,2.983-9.249 c-0.223-2.601-1.169-5.095-2.527-7.414c3.424-1.203,6.311-2.693,8.626-4.42c15.985,8.034,27.896,21.985,32.143,38.588 l-53.045,20.151C125.329,423.499,116.248,439.603,119.264,455.893z M395.418,463.307c-3.698,4.428-9.141,6.968-14.931,6.97 l-7.872,0.003l-4.918-26.555c-0.755-4.073-4.666-6.766-8.741-6.009c-4.072,0.754-6.763,4.667-6.009,8.74l4.414,23.829 l-25.806,0.01l-3.325-17.957c-0.755-4.073-4.667-6.763-8.741-6.009c-4.072,0.754-6.763,4.667-6.009,8.74l2.82,15.232 l-60.025,0.023l-4.518-24.388c-0.756-4.073-4.666-6.763-8.741-6.008c-4.073,0.754-6.763,4.668-6.009,8.741l4.013,21.661 l-87.644,0.034c-0.002,0-0.004,0-0.006,0c-9.372,0-17.404-6.65-19.102-15.816l-0.258-1.39c-1.695-9.156,3.423-18.213,12.17-21.537 l29.477-11.198l2.196,11.852c0.669,3.611,3.821,6.135,7.365,6.135c0.454,0,0.914-0.042,1.376-0.127 c4.072-0.755,6.762-4.668,6.007-8.741l-2.693-14.533l43.755-16.622c3.872-1.471,5.819-5.803,4.348-9.675 c-1.471-3.873-5.808-5.819-9.674-4.348l-20.361,7.735c-5.712-20.223-20.386-37.116-39.845-46.794 c-0.611-3.928-3.41-9.605-13.534-13.603c-6.619-2.614-15.261-4.053-24.331-4.053c-6.242,0-12.203,0.689-17.465,1.944v-4.53 c0-4.142-3.357-7.5-7.5-7.5c-1.751,0-3.357,0.604-4.634,1.61c-1.183-7.823-1.845-15.769-1.955-23.827H343 c4.143,0,7.5-3.358,7.5-7.5c0-4.142-3.357-7.5-7.5-7.5h-3.069c4.776-9.836,7.474-20.864,7.474-32.519 c0-6.617-5.063-12.068-11.515-12.687c2.809-2.649,6.315-4.435,10.223-5.116c1.145-0.199,2.307-0.3,3.455-0.3 c9.683,0,17.911,6.927,19.564,16.469c0.191,1.105,0.289,2.245,0.29,3.39c0.005,3.884,2.975,7.122,6.844,7.462 c8.963,0.787,16.296,7.528,17.833,16.392c0.408,2.357,0.357,4.683-0.052,6.909H386c-4.143,0-7.5,3.358-7.5,7.5 c0,4.142,3.357,7.5,7.5,7.5h58.292c-0.186,13.758-1.958,27.197-5.263,40.236l-40.646,23.994 c-2.486-8.652-8.264-15.991-16.225-20.447c-8.929-4.997-19.54-5.778-29.11-2.143l-83.711,31.802 c-3.873,1.471-5.819,5.803-4.348,9.675c1.471,3.873,5.807,5.817,9.674,4.348l11.028-4.189l3.424,18.487 c0.669,3.611,3.821,6.136,7.366,6.136c0.453,0,0.913-0.042,1.375-0.127c4.072-0.754,6.763-4.667,6.009-8.74l-3.921-21.17 l58.429-22.197c5.414-2.056,11.412-1.615,16.459,1.21c5.038,2.819,8.528,7.679,9.576,13.331l15.173,81.915 C400.627,453.116,399.11,458.889,395.418,463.307z M422.178,404.601c-3.499,0.643-6.064,3.655-6.143,7.212 c-0.078,3.557,2.354,6.679,5.821,7.474l55.84,12.808l-1.395,9.359l-64.734-11.633l-10.119-54.634l56.384-33.284l4.697,8.317 l-47.558,31.791c-2.957,1.977-4.119,5.759-2.781,9.055c1.337,3.296,4.807,5.2,8.305,4.557l74.706-13.723l1.664,8.98 L422.178,404.601z"/> </g> </g></symbol><symbol id="bar" viewBox="0 0 512 512"><title>bar</title><path d="M435.2,477.867c4.71,0,8.533-3.823,8.533-8.533v-204.8c0-4.71-3.823-8.533-8.533-8.533H76.8 c-4.71,0-8.533,3.823-8.533,8.533v204.8c0,4.71,3.823,8.533,8.533,8.533s8.533-3.823,8.533-8.533V273.067h102.4v196.267 c0,4.71,3.823,8.533,8.533,8.533s8.533-3.823,8.533-8.533V273.067h221.867v196.267C426.667,474.044,430.49,477.867,435.2,477.867 z"/><path d="M401.067,324.267c2.185,0,4.369-0.836,6.033-2.5c3.337-3.337,3.337-8.73,0-12.066l-17.067-17.067 c-3.336-3.337-8.73-3.337-12.066,0c-3.336,3.337-3.336,8.73,0,12.066l17.067,17.067 C396.698,323.43,398.882,324.267,401.067,324.267z"/><path d="M503.467,494.933h-8.533v-268.8c0-4.71-3.823-8.533-8.533-8.533s-8.533,3.823-8.533,8.533v268.8h-85.333v-51.2h8.533 c4.71,0,8.533-3.823,8.533-8.533s-3.823-8.533-8.533-8.533h-34.133c-4.71,0-8.533,3.823-8.533,8.533s3.823,8.533,8.533,8.533 h8.533v51.2h-51.2V409.6h42.667c4.71,0,8.533-3.823,8.533-8.533s-3.823-8.533-8.533-8.533h-102.4 c-4.71,0-8.533,3.823-8.533,8.533s3.823,8.533,8.533,8.533H307.2v85.333H256v-51.2h8.533c4.71,0,8.533-3.823,8.533-8.533 s-3.823-8.533-8.533-8.533H230.4c-4.71,0-8.533,3.823-8.533,8.533s3.823,8.533,8.533,8.533h8.533v51.2h-204.8v-268.8 c0-4.71-3.823-8.533-8.533-8.533c-4.71,0-8.533,3.823-8.533,8.533v268.8H8.533c-4.71,0-8.533,3.823-8.533,8.533 S3.823,512,8.533,512h494.933c4.71,0,8.533-3.823,8.533-8.533S508.177,494.933,503.467,494.933z"/><path d="M469.333,0H42.667C19.14,0,0,19.14,0,42.667v152.738c0,2.569,1.152,4.992,3.132,6.613c1.988,1.613,4.591,2.27,7.1,1.749 c13.628-2.765,25.114-10.897,32.427-21.914c9.173,13.824,24.883,22.946,42.675,22.946c17.792,0,33.485-9.114,42.667-22.921 c9.182,13.807,24.883,22.921,42.667,22.921s33.485-9.114,42.667-22.921C222.515,195.686,238.217,204.8,256,204.8 c17.784,0,33.485-9.114,42.667-22.921c9.182,13.807,24.883,22.921,42.667,22.921c17.792,0,33.485-9.114,42.667-22.921 c9.182,13.807,24.883,22.921,42.667,22.921c17.792,0,33.502-9.122,42.675-22.946c7.313,11.017,18.799,19.149,32.427,21.914 c2.509,0.538,5.112-0.128,7.1-1.749c1.98-1.621,3.132-4.045,3.132-6.613V42.667C512,19.14,492.86,0,469.333,0z M494.933,183.159 c-10.3-5.973-17.067-17.143-17.067-29.559V42.667c0-4.71-3.823-8.533-8.533-8.533s-8.533,3.823-8.533,8.533V153.6 c0,18.825-15.309,34.133-34.133,34.133s-34.133-15.309-34.133-34.133V42.667c0-4.71-3.823-8.533-8.533-8.533 s-8.533,3.823-8.533,8.533V153.6c0,18.825-15.309,34.133-34.133,34.133c-18.825,0-34.133-15.309-34.133-34.133V42.667 c0-4.71-3.823-8.533-8.533-8.533s-8.533,3.823-8.533,8.533V153.6c0,18.825-15.309,34.133-34.133,34.133 c-18.825,0-34.133-15.309-34.133-34.133V42.667c0-4.71-3.823-8.533-8.533-8.533c-4.71,0-8.533,3.823-8.533,8.533V153.6 c0,18.825-15.309,34.133-34.133,34.133s-34.133-15.309-34.133-34.133V42.667c0-4.71-3.823-8.533-8.533-8.533 s-8.533,3.823-8.533,8.533V153.6c0,18.825-15.309,34.133-34.133,34.133c-18.825,0-34.133-15.309-34.133-34.133V42.667 c0-4.71-3.823-8.533-8.533-8.533c-4.71,0-8.533,3.823-8.533,8.533V153.6c0,12.416-6.767,23.586-17.067,29.559V42.667 c0-14.114,11.486-25.6,25.6-25.6h426.667c14.114,0,25.6,11.486,25.6,25.6V183.159z"/><path d="M153.6,366.933V384c0,4.71,3.823,8.533,8.533,8.533c4.71,0,8.533-3.823,8.533-8.533v-17.067 c0-4.71-3.823-8.533-8.533-8.533C157.423,358.4,153.6,362.223,153.6,366.933z"/><path d="M343.834,309.7c-3.337,3.337-3.337,8.73,0,12.066l34.133,34.133c1.664,1.664,3.849,2.5,6.033,2.5 c2.185,0,4.369-0.836,6.033-2.5c3.337-3.337,3.337-8.73,0-12.066L355.9,309.7C352.563,306.364,347.17,306.364,343.834,309.7z"/></symbol><symbol id="cook-hat" viewBox="0 0 469.868 469.868"><title>cook-hat</title><path d="M428.705,53.271c-26.587-26.587-61.937-41.229-99.537-41.229c-35.151,0-68.336,12.798-94.233,36.188 c-25.897-23.391-59.083-36.188-94.233-36.188c-37.6,0-72.95,14.642-99.537,41.229c-54.885,54.885-54.885,144.189,0,199.074 l16.893,16.893v181.089c0,4.142,3.358,7.5,7.5,7.5h338.755c4.142,0,7.5-3.358,7.5-7.5V269.238l16.893-16.893 C483.589,197.46,483.589,108.156,428.705,53.271z M73.057,442.827v-15h323.755v15H73.057z M418.098,241.738l-19.09,19.09 c-1.407,1.406-2.197,3.314-2.197,5.303v146.695H73.057V266.131c0-1.989-0.79-3.897-2.197-5.303l-19.09-19.09 c-49.036-49.036-49.036-128.824,0-177.861c23.754-23.754,55.337-36.836,88.931-36.836c31.081,0,60.435,11.206,83.466,31.694 l-36.963,36.962c-2.929,2.929-2.929,7.678,0,10.606c1.464,1.465,3.384,2.197,5.303,2.197c1.919,0,3.839-0.732,5.303-2.197 l42.073-42.073c0.061-0.061,0.112-0.126,0.17-0.188c0.06-0.057,0.124-0.107,0.183-0.166c23.754-23.754,55.337-36.836,88.93-36.836 c33.594,0,65.176,13.082,88.931,36.836C467.134,112.914,467.134,192.702,418.098,241.738z"/><path d="M374.312,258.631h-44.133l27.41-65.639c1.596-3.822-0.208-8.215-4.031-9.811s-8.215,0.209-9.811,4.031l-29.824,71.419 h-71.488v-68.529c0-4.142-3.358-7.5-7.5-7.5s-7.5,3.358-7.5,7.5v68.529h-71.488l-29.824-71.419 c-1.596-3.823-5.989-5.625-9.811-4.031c-3.822,1.596-5.627,5.989-4.031,9.811l27.41,65.639H95.557c-4.142,0-7.5,3.358-7.5,7.5 s3.358,7.5,7.5,7.5h278.755c4.142,0,7.5-3.358,7.5-7.5S378.454,258.631,374.312,258.631z"/></symbol><symbol id="sprout" viewBox="0 0 511.871 511.871"><title>sprout</title><g> <g> <path d="M12.236,404.922h-0.078c-2.21,0-3.96,1.789-3.96,3.998c0,2.211,1.831,4,4.038,4c2.21,0,3.999-1.789,3.999-4 C16.235,406.711,14.446,404.922,12.236,404.922z"/> </g> </g><g> <g> <path d="M36.23,428.917h-0.078c-2.21,0-3.96,1.787-3.96,3.998s1.831,4,4.038,4c2.21,0,3.999-1.789,3.999-4 S38.44,428.917,36.23,428.917z"/> </g> </g><g> <g> <path d="M12.236,356.934h-0.078c-2.21,0-3.96,1.789-3.96,3.998c0,2.211,1.831,4,4.038,4c2.21,0,3.999-1.789,3.999-4 C16.235,358.723,14.446,356.934,12.236,356.934z"/> </g> </g><g> <g> <path d="M36.23,380.928h-0.078c-2.21,0-3.96,1.789-3.96,3.998c0,2.211,1.831,4,4.038,4c2.21,0,3.999-1.789,3.999-4 C40.229,382.717,38.44,380.928,36.23,380.928z"/> </g> </g><g> <g> <path d="M60.223,404.922h-0.078c-2.21,0-3.959,1.789-3.959,3.998c0,2.211,1.831,4,4.038,4c2.21,0,3.999-1.789,3.998-4 C64.222,406.711,62.433,404.922,60.223,404.922z"/> </g> </g><g> <g> <path d="M84.218,428.917H84.14c-2.21,0-3.96,1.787-3.96,3.998s1.831,4,4.038,4c2.21,0,3.999-1.789,3.999-4 S86.428,428.917,84.218,428.917z"/> </g> </g><g> <g> <path d="M12.236,308.946h-0.078c-2.21,0-3.96,1.789-3.96,4c0,2.209,1.831,3.998,4.038,3.998c2.21,0,3.999-1.789,3.999-3.998 C16.235,310.735,14.446,308.946,12.236,308.946z"/> </g> </g><g> <g> <path d="M36.23,332.94h-0.078c-2.21,0-3.96,1.789-3.96,4c0,2.209,1.831,3.998,4.038,3.998c2.21,0,3.999-1.789,3.999-3.998 C40.229,334.729,38.44,332.94,36.23,332.94z"/> </g> </g><g> <g> <path d="M60.223,356.934h-0.078c-2.21,0-3.959,1.789-3.959,3.998c0,2.211,1.831,4,4.038,4c2.21,0,3.999-1.789,3.998-4 C64.222,358.723,62.433,356.934,60.223,356.934z"/> </g> </g><g> <g> <path d="M84.218,380.928H84.14c-2.21,0-3.96,1.789-3.96,3.998c0,2.211,1.831,4,4.038,4c2.21,0,3.998-1.789,3.999-4 C88.217,382.717,86.428,380.928,84.218,380.928z"/> </g> </g><g> <g> <path d="M108.211,404.922h-0.078c-2.21,0-3.96,1.789-3.96,3.998c0,2.211,1.832,4,4.038,4c2.211,0,3.999-1.789,3.999-4 C112.21,406.711,110.421,404.922,108.211,404.922z"/> </g> </g><g> <g> <path d="M132.206,428.917h-0.078c-2.21,0-3.96,1.787-3.96,3.998s1.831,4,4.038,4c2.21,0,3.999-1.789,3.999-4 S134.416,428.917,132.206,428.917z"/> </g> </g><g> <g> <path d="M12.236,260.958h-0.078c-2.21,0-3.96,1.789-3.96,4s1.831,3.998,4.038,3.998c2.21,0,3.999-1.787,3.999-3.998 S14.446,260.958,12.236,260.958z"/> </g> </g><g> <g> <path d="M36.23,284.952h-0.078c-2.21,0-3.96,1.789-3.96,4c0,2.209,1.831,3.998,4.038,3.998c2.21,0,3.999-1.789,3.999-3.998 C40.229,286.741,38.44,284.952,36.23,284.952z"/> </g> </g><g> <g> <path d="M60.223,308.946h-0.078c-2.21,0-3.959,1.789-3.959,4c0,2.209,1.831,3.998,4.038,3.998c2.21,0,3.999-1.789,3.998-3.998 C64.222,310.735,62.433,308.946,60.223,308.946z"/> </g> </g><g> <g> <path d="M84.218,332.94H84.14c-2.21,0-3.96,1.789-3.96,4c0,2.209,1.831,3.998,4.038,3.998c2.21,0,3.998-1.789,3.999-3.998 C88.217,334.729,86.428,332.94,84.218,332.94z"/> </g> </g><g> <g> <path d="M108.211,356.934h-0.078c-2.21,0-3.96,1.789-3.96,3.998c0,2.211,1.832,4,4.038,4c2.211,0,3.999-1.789,3.999-4 C112.21,358.723,110.421,356.934,108.211,356.934z"/> </g> </g><g> <g> <path d="M132.206,380.928h-0.078c-2.21,0-3.96,1.789-3.96,3.998c0,2.211,1.831,4,4.038,4c2.21,0,3.999-1.789,3.999-4 C136.205,382.717,134.416,380.928,132.206,380.928z"/> </g> </g><g> <g> <path d="M156.2,404.922h-0.078c-2.211,0-3.96,1.789-3.96,3.998c0,2.211,1.831,4,4.038,4c2.21,0,3.999-1.789,3.999-4 C160.199,406.711,158.41,404.922,156.2,404.922z"/> </g> </g><g> <g> <path d="M180.193,428.917h-0.078c-2.21,0-3.96,1.787-3.96,3.998s1.831,4,4.038,4c2.211,0,3.999-1.789,3.999-4 S182.403,428.917,180.193,428.917z"/> </g> </g><g> <g> <path d="M60.223,260.958h-0.078c-2.21,0-3.959,1.789-3.959,4s1.831,3.998,4.038,3.998c2.21,0,3.998-1.787,3.998-3.998 S62.433,260.958,60.223,260.958z"/> </g> </g><g> <g> <path d="M84.218,284.952H84.14c-2.21,0-3.96,1.789-3.96,4c0,2.209,1.831,3.998,4.038,3.998c2.21,0,3.998-1.789,3.999-3.998 C88.217,286.741,86.428,284.952,84.218,284.952z"/> </g> </g><g> <g> <path d="M108.211,308.946h-0.078c-2.21,0-3.96,1.789-3.96,4c0,2.209,1.832,3.998,4.038,3.998c2.211,0,3.999-1.789,3.999-3.998 C112.21,310.735,110.421,308.946,108.211,308.946z"/> </g> </g><g> <g> <path d="M132.206,332.94h-0.078c-2.21,0-3.96,1.789-3.96,4c0,2.209,1.831,3.998,4.038,3.998c2.21,0,3.999-1.789,3.999-3.998 C136.205,334.729,134.416,332.94,132.206,332.94z"/> </g> </g><g> <g> <path d="M156.2,356.934h-0.078c-2.211,0-3.96,1.789-3.96,3.998c0,2.211,1.831,4,4.038,4c2.21,0,3.999-1.789,3.999-4 C160.199,358.723,158.41,356.934,156.2,356.934z"/> </g> </g><g> <g> <path d="M180.193,380.928h-0.078c-2.21,0-3.96,1.789-3.96,3.998c0,2.211,1.831,4,4.038,4c2.211,0,3.999-1.789,3.999-4 C184.192,382.717,182.403,380.928,180.193,380.928z"/> </g> </g><g> <g> <path d="M204.186,404.922h-0.078c-2.209,0-3.959,1.789-3.959,3.998c0,2.211,1.832,4,4.038,4c2.211,0,3.999-1.789,3.998-4 C208.185,406.711,206.397,404.922,204.186,404.922z"/> </g> </g><g> <g> <path d="M228.181,428.917h-0.078c-2.21,0-3.96,1.787-3.96,3.998s1.832,4,4.038,4c2.211,0,3.999-1.789,3.999-4 S230.391,428.917,228.181,428.917z"/> </g> </g><g> <g> <path d="M108.211,260.958h-0.078c-2.21,0-3.96,1.789-3.96,4s1.832,3.998,4.038,3.998c2.211,0,3.999-1.787,3.999-3.998 S110.421,260.958,108.211,260.958z"/> </g> </g><g> <g> <path d="M132.206,284.952h-0.078c-2.21,0-3.96,1.789-3.96,4c0,2.209,1.831,3.998,4.038,3.998c2.21,0,3.999-1.789,3.999-3.998 C136.205,286.741,134.416,284.952,132.206,284.952z"/> </g> </g><g> <g> <path d="M156.2,308.946h-0.078c-2.211,0-3.96,1.789-3.96,4c0,2.209,1.831,3.998,4.038,3.998c2.21,0,3.999-1.789,3.999-3.998 C160.199,310.735,158.41,308.946,156.2,308.946z"/> </g> </g><g> <g> <path d="M180.193,332.94h-0.078c-2.21,0-3.96,1.789-3.96,4c0,2.209,1.831,3.998,4.038,3.998c2.211,0,3.999-1.789,3.999-3.998 C184.192,334.729,182.403,332.94,180.193,332.94z"/> </g> </g><g> <g> <path d="M204.186,356.934h-0.078c-2.209,0-3.959,1.789-3.959,3.998c0,2.211,1.832,4,4.038,4c2.211,0,3.999-1.789,3.998-4 C208.185,358.723,206.397,356.934,204.186,356.934z"/> </g> </g><g> <g> <path d="M276.165,428.917h-0.078c-2.203,0-3.952,1.787-3.952,3.998s1.827,4,4.03,4c2.218,0,3.999-1.789,3.999-4 S278.383,428.917,276.165,428.917z"/> </g> </g><g> <g> <path d="M156.2,260.958h-0.078c-2.211,0-3.96,1.789-3.96,4s1.831,3.998,4.038,3.998c2.21,0,3.999-1.787,3.999-3.998 S158.41,260.958,156.2,260.958z"/> </g> </g><g> <g> <path d="M180.193,284.952h-0.078c-2.21,0-3.96,1.789-3.96,4c0,2.209,1.831,3.998,4.038,3.998c2.211,0,3.999-1.789,3.999-3.998 C184.192,286.741,182.403,284.952,180.193,284.952z"/> </g> </g><g> <g> <path d="M204.186,308.946h-0.078c-2.209,0-3.959,1.789-3.959,4c0,2.209,1.832,3.998,4.038,3.998c2.211,0,3.999-1.789,3.998-3.998 C208.185,310.735,206.397,308.946,204.186,308.946z"/> </g> </g><g> <g> <path d="M300.16,404.922h-0.078c-2.203,0-3.953,1.789-3.953,3.998c0,2.211,1.828,4,4.031,4c2.217,0,3.998-1.789,3.998-4 C304.158,406.711,302.378,404.922,300.16,404.922z"/> </g> </g><g> <g> <path d="M324.153,428.917h-0.078c-2.202,0-3.952,1.787-3.952,3.998s1.828,4,4.03,4c2.219,0,3.999-1.789,3.999-4 S326.372,428.917,324.153,428.917z"/> </g> </g><g> <g> <path d="M204.186,260.958h-0.078c-2.209,0-3.959,1.789-3.959,4s1.832,3.998,4.038,3.998c2.211,0,3.998-1.787,3.998-3.998 S206.397,260.958,204.186,260.958z"/> </g> </g><g> <g> <path d="M228.181,284.952h-0.078c-2.21,0-3.96,1.789-3.96,4c0,2.209,1.832,3.998,4.038,3.998c2.211,0,3.999-1.789,3.999-3.998 C232.18,286.741,230.391,284.952,228.181,284.952z"/> </g> </g><g> <g> <path d="M300.16,356.934h-0.078c-2.203,0-3.953,1.789-3.953,3.998c0,2.211,1.828,4,4.031,4c2.217,0,3.998-1.789,3.998-4 C304.158,358.723,302.378,356.934,300.16,356.934z"/> </g> </g><g> <g> <path d="M324.153,380.928h-0.078c-2.202,0-3.952,1.789-3.952,3.998c0,2.211,1.828,4,4.03,4c2.219,0,3.999-1.789,3.999-4 C328.152,382.717,326.372,380.928,324.153,380.928z"/> </g> </g><g> <g> <path d="M348.147,404.922h-0.078c-2.202,0-3.952,1.789-3.952,3.998c0,2.211,1.828,4,4.03,4c2.218,0,3.999-1.789,3.999-4 C352.146,406.711,350.365,404.922,348.147,404.922z"/> </g> </g><g> <g> <path d="M372.141,428.917h-0.078c-2.202,0-3.952,1.787-3.952,3.998s1.828,4,4.03,4c2.218,0,3.999-1.789,3.999-4 S374.359,428.917,372.141,428.917z"/> </g> </g><g> <g> <path d="M300.16,308.946h-0.078c-2.203,0-3.953,1.789-3.953,4c0,2.209,1.828,3.998,4.031,3.998c2.217,0,3.998-1.789,3.998-3.998 C304.158,310.735,302.378,308.946,300.16,308.946z"/> </g> </g><g> <g> <path d="M324.153,332.94h-0.078c-2.202,0-3.952,1.789-3.952,4c0,2.209,1.828,3.998,4.03,3.998c2.219,0,3.999-1.789,3.999-3.998 C328.152,334.729,326.372,332.94,324.153,332.94z"/> </g> </g><g> <g> <path d="M348.147,356.934h-0.078c-2.202,0-3.952,1.789-3.952,3.998c0,2.211,1.828,4,4.03,4c2.218,0,3.999-1.789,3.999-4 C352.146,358.723,350.365,356.934,348.147,356.934z"/> </g> </g><g> <g> <path d="M372.141,380.928h-0.078c-2.202,0-3.952,1.789-3.952,3.998c0,2.211,1.828,4,4.03,4c2.218,0,3.999-1.789,3.999-4 C376.14,382.717,374.359,380.928,372.141,380.928z"/> </g> </g><g> <g> <path d="M396.135,404.922h-0.078c-2.203,0-3.952,1.789-3.952,3.998c0,2.211,1.827,4,4.03,4c2.218,0,3.999-1.789,3.999-4 C400.134,406.711,398.353,404.922,396.135,404.922z"/> </g> </g><g> <g> <path d="M420.128,428.917h-0.078c-2.202,0-3.951,1.787-3.951,3.998s1.827,4,4.029,4c2.219,0,4-1.789,4-4 S422.347,428.917,420.128,428.917z"/> </g> </g><g> <g> <path d="M300.16,260.958h-0.078c-2.203,0-3.953,1.789-3.953,4s1.828,3.998,4.031,3.998c2.217,0,3.998-1.787,3.998-3.998 S302.378,260.958,300.16,260.958z"/> </g> </g><g> <g> <path d="M324.153,284.952h-0.078c-2.202,0-3.952,1.789-3.952,4c0,2.209,1.828,3.998,4.03,3.998c2.219,0,3.999-1.789,3.999-3.998 C328.152,286.741,326.372,284.952,324.153,284.952z"/> </g> </g><g> <g> <path d="M348.147,308.946h-0.078c-2.202,0-3.952,1.789-3.952,4c0,2.209,1.828,3.998,4.03,3.998c2.218,0,3.999-1.789,3.999-3.998 C352.146,310.735,350.365,308.946,348.147,308.946z"/> </g> </g><g> <g> <path d="M372.141,332.94h-0.078c-2.202,0-3.952,1.789-3.952,4c0,2.209,1.828,3.998,4.03,3.998c2.218,0,3.999-1.789,3.999-3.998 C376.14,334.729,374.359,332.94,372.141,332.94z"/> </g> </g><g> <g> <path d="M396.135,356.934h-0.078c-2.203,0-3.952,1.789-3.952,3.998c0,2.211,1.827,4,4.03,4c2.218,0,3.999-1.789,3.999-4 C400.134,358.723,398.353,356.934,396.135,356.934z"/> </g> </g><g> <g> <path d="M420.128,380.928h-0.078c-2.202,0-3.951,1.789-3.951,3.998c0,2.211,1.827,4,4.029,4c2.219,0,4-1.789,4-4 C424.128,382.717,422.347,380.928,420.128,380.928z"/> </g> </g><g> <g> <path d="M444.123,404.922h-0.078c-2.202,0-3.952,1.789-3.952,3.998c0,2.211,1.828,4,4.03,4c2.218,0,3.999-1.789,3.999-4 C448.122,406.711,446.342,404.922,444.123,404.922z"/> </g> </g><g> <g> <path d="M468.117,428.917h-0.078c-2.202,0-3.952,1.787-3.952,3.998s1.828,4,4.03,4c2.218,0,3.999-1.789,3.999-4 S470.336,428.917,468.117,428.917z"/> </g> </g><g> <g> <path d="M348.147,260.958h-0.078c-2.202,0-3.952,1.789-3.952,4s1.828,3.998,4.03,3.998c2.218,0,3.999-1.787,3.999-3.998 S350.365,260.958,348.147,260.958z"/> </g> </g><g> <g> <path d="M372.141,284.952h-0.078c-2.202,0-3.952,1.789-3.952,4c0,2.209,1.828,3.998,4.03,3.998c2.218,0,3.999-1.789,3.999-3.998 C376.14,286.741,374.359,284.952,372.141,284.952z"/> </g> </g><g> <g> <path d="M396.135,308.946h-0.078c-2.203,0-3.952,1.789-3.952,4c0,2.209,1.827,3.998,4.03,3.998c2.218,0,3.999-1.789,3.999-3.998 C400.134,310.735,398.353,308.946,396.135,308.946z"/> </g> </g><g> <g> <path d="M420.128,332.94h-0.078c-2.202,0-3.951,1.789-3.951,4c0,2.209,1.827,3.998,4.029,3.998c2.219,0,4-1.789,4-3.998 C424.128,334.729,422.347,332.94,420.128,332.94z"/> </g> </g><g> <g> <path d="M444.123,356.934h-0.078c-2.202,0-3.952,1.789-3.952,3.998c0,2.211,1.828,4,4.03,4c2.218,0,3.999-1.789,3.999-4 C448.122,358.723,446.342,356.934,444.123,356.934z"/> </g> </g><g> <g> <path d="M468.117,380.928h-0.078c-2.202,0-3.952,1.789-3.952,3.998c0,2.211,1.828,4,4.03,4c2.218,0,3.999-1.789,3.999-4 C472.116,382.717,470.336,380.928,468.117,380.928z"/> </g> </g><g> <g> <path d="M492.111,404.922h-0.078c-2.203,0-3.952,1.789-3.952,3.998c0,2.211,1.827,4,4.03,4c2.218,0,3.999-1.789,3.999-4 C496.11,406.711,494.329,404.922,492.111,404.922z"/> </g> </g><g> <g> <path d="M396.135,260.958h-0.078c-2.203,0-3.952,1.789-3.952,4s1.827,3.998,4.03,3.998c2.218,0,3.999-1.787,3.999-3.998 S398.353,260.958,396.135,260.958z"/> </g> </g><g> <g> <path d="M420.128,284.952h-0.078c-2.202,0-3.951,1.789-3.951,4c0,2.209,1.827,3.998,4.029,3.998c2.219,0,4-1.789,4-3.998 C424.128,286.741,422.347,284.952,420.128,284.952z"/> </g> </g><g> <g> <path d="M444.123,308.946h-0.078c-2.202,0-3.952,1.789-3.952,4c0,2.209,1.828,3.998,4.03,3.998c2.218,0,3.999-1.789,3.999-3.998 C448.122,310.735,446.342,308.946,444.123,308.946z"/> </g> </g><g> <g> <path d="M468.117,332.94h-0.078c-2.202,0-3.952,1.789-3.952,4c0,2.209,1.828,3.998,4.03,3.998c2.218,0,3.999-1.789,3.999-3.998 C472.116,334.729,470.336,332.94,468.117,332.94z"/> </g> </g><g> <g> <path d="M492.111,356.934h-0.078c-2.203,0-3.952,1.789-3.952,3.998c0,2.211,1.827,4,4.03,4c2.218,0,3.999-1.789,3.999-4 C496.11,358.723,494.329,356.934,492.111,356.934z"/> </g> </g><g> <g> <path d="M444.123,260.958h-0.078c-2.202,0-3.952,1.789-3.952,4s1.828,3.998,4.03,3.998c2.218,0,3.999-1.787,3.999-3.998 S446.342,260.958,444.123,260.958z"/> </g> </g><g> <g> <path d="M468.117,284.952h-0.078c-2.202,0-3.952,1.789-3.952,4c0,2.209,1.828,3.998,4.03,3.998c2.218,0,3.999-1.789,3.999-3.998 C472.116,286.741,470.336,284.952,468.117,284.952z"/> </g> </g><g> <g> <path d="M492.111,308.946h-0.078c-2.203,0-3.952,1.789-3.952,4c0,2.209,1.827,3.998,4.03,3.998c2.218,0,3.999-1.789,3.999-3.998 C496.11,310.735,494.329,308.946,492.111,308.946z"/> </g> </g><g> <g> <path d="M492.111,260.958h-0.078c-2.203,0-3.952,1.789-3.952,4s1.827,3.998,4.03,3.998c2.218,0,3.999-1.787,3.999-3.998 S494.329,260.958,492.111,260.958z"/> </g> </g><g> <g> <path d="M335.698,55.354c-0.906-2-3.265-2.914-5.295-1.984c-89.482,40.677-82.386,146.846-82.304,147.916 c0.16,2.093,1.913,3.687,3.983,3.687c0.101,0,0.207,0,0.313-0.008c2.199-0.172,3.847-2.093,3.679-4.296 c-0.078-1.016-6.806-101.631,77.641-140.02C335.729,59.736,336.612,57.369,335.698,55.354z"/> </g> </g><g> <g> <path d="M394.634,15.068c-2.796-2.796-7.975-4.093-16.293-4.093c-25.086,0-75.113,12.583-91.898,25.447 c-10.466,8.021-17.183,19.643-18.917,32.718c-1.734,13.075,1.735,26.04,9.764,36.514c9.419,12.294,23.72,19.339,39.224,19.339 c10.935,0,21.308-3.515,30.008-10.177c18.542-14.215,49.394-68.959,50.791-90.118C397.602,20.317,396.727,17.161,394.634,15.068z M389.223,25.347c-2.436,20.182-31.336,70.678-47.573,83.12c-7.28,5.584-15.973,8.529-25.135,8.529 c-12.996,0-24.978-5.905-32.882-16.207c-6.717-8.78-9.623-19.644-8.178-30.602s7.084-20.69,15.863-27.415 c15.394-11.81,63.608-23.799,87.024-23.799c8.78,0,10.568,1.679,10.623,1.743C388.981,20.723,389.668,21.7,389.223,25.347z"/> </g> </g><g> <g> <path d="M218.789,74.754c-6.936-2.952-20.475-4.717-36.217-4.717c-16.859,0-37.451,1.781-39.834,10.271 c-3.401,12.162,33.652,51.355,48.906,57.892c4.327,1.852,8.888,2.789,13.559,2.789c13.836,0,26.294-8.217,31.742-20.934 C244.427,102.567,236.285,82.253,218.789,74.754z M229.596,116.909c-4.187,9.771-13.763,16.082-24.393,16.082 c-3.585,0-7.088-0.718-10.411-2.14c-15.477-6.639-45.02-42.005-44.509-48.035c1.555-1.929,12.895-4.78,32.289-4.78 c14.281,0,27.262,1.601,33.074,4.077C229.084,87.869,235.34,103.474,229.596,116.909z"/> </g> </g><g> <g> <path d="M197.533,93.899c-2.004-0.984-4.382-0.164-5.362,1.812c-0.98,1.976-0.168,4.374,1.808,5.358 c30.359,15.043,45.75,35.202,45.75,59.914c0,2.211,1.789,3.999,3.999,3.999c2.21,0,3.999-1.788,3.999-3.999 C247.727,133.373,230.368,110.176,197.533,93.899z"/> </g> </g><g> <g> <path d="M507.872,460.909H3.999c-2.21,0-3.999,1.787-3.999,3.998s1.789,3.998,3.999,3.998h503.874 c2.209,0,3.998-1.787,3.998-3.998S510.082,460.909,507.872,460.909z"/> </g> </g><g> <g> <path d="M507.872,228.966H3.999c-2.21,0-3.999,1.788-3.999,3.999c0,2.21,1.789,3.999,3.999,3.999h503.874 c2.209,0,3.999-1.788,3.998-3.999C511.871,230.754,510.082,228.966,507.872,228.966z"/> </g> </g><g> <g> <path d="M507.872,212.971H3.999c-2.21,0-3.999,1.788-3.999,3.999c0,2.21,1.789,3.999,3.999,3.999h503.874 c2.209,0,3.999-1.789,3.998-3.999C511.871,214.759,510.082,212.971,507.872,212.971z"/> </g> </g><g> <g> <path d="M54.815,214.135c-1.562-1.562-4.093-1.562-5.655,0l-15.996,15.996c-1.562,1.562-1.562,4.093,0,5.655 c0.782,0.781,1.805,1.171,2.828,1.171c1.023,0,2.046-0.391,2.827-1.171l15.996-15.996 C56.377,218.228,56.377,215.697,54.815,214.135z"/> </g> </g><g> <g> <path d="M102.802,214.135c-1.562-1.562-4.093-1.562-5.655,0l-15.996,15.996c-1.562,1.562-1.562,4.093,0,5.655 c0.782,0.781,1.805,1.171,2.828,1.171c1.023,0,2.047-0.391,2.827-1.171l15.996-15.996 C104.364,218.228,104.364,215.697,102.802,214.135z"/> </g> </g><g> <g> <path d="M150.791,214.135c-1.562-1.562-4.093-1.562-5.655,0l-15.996,15.996c-1.562,1.562-1.562,4.093,0,5.655 c0.781,0.781,1.804,1.171,2.827,1.171c1.024,0,2.047-0.391,2.828-1.171l15.996-15.996 C152.353,218.228,152.353,215.697,150.791,214.135z"/> </g> </g><g> <g> <path d="M198.778,214.135c-1.562-1.562-4.093-1.562-5.655,0l-15.996,15.996c-1.562,1.562-1.562,4.093,0,5.655 c0.782,0.781,1.805,1.171,2.828,1.171c1.023,0,2.046-0.391,2.827-1.171l15.996-15.996 C200.34,218.228,200.34,215.697,198.778,214.135z"/> </g> </g><g> <g> <path d="M246.766,214.135c-1.561-1.562-4.092-1.562-5.654,0l-15.996,15.996c-1.562,1.562-1.562,4.093,0,5.655 c0.781,0.781,1.804,1.171,2.827,1.171s2.047-0.391,2.827-1.171l15.996-15.996C248.328,218.228,248.328,215.697,246.766,214.135z"/> </g> </g><g> <g> <path d="M294.754,214.135c-1.562-1.562-4.093-1.562-5.655,0l-15.996,15.996c-1.562,1.562-1.562,4.093,0,5.655 c0.781,0.781,1.805,1.171,2.828,1.171c1.024,0,2.046-0.391,2.827-1.171l15.996-15.996 C296.316,218.228,296.316,215.697,294.754,214.135z"/> </g> </g><g> <g> <path d="M342.741,214.135c-1.561-1.562-4.092-1.562-5.654,0l-15.996,15.996c-1.562,1.562-1.562,4.093,0,5.655 c0.781,0.781,1.805,1.171,2.828,1.171s2.046-0.391,2.827-1.171l15.995-15.996C344.303,218.228,344.303,215.697,342.741,214.135z"/> </g> </g><g> <g> <path d="M390.73,214.135c-1.562-1.562-4.092-1.562-5.654,0l-15.996,15.996c-1.562,1.562-1.562,4.093,0,5.655 c0.781,0.781,1.804,1.171,2.827,1.171s2.046-0.391,2.827-1.171l15.996-15.996C392.292,218.228,392.292,215.697,390.73,214.135z"/> </g> </g><g> <g> <path d="M438.718,214.135c-1.562-1.562-4.093-1.562-5.655,0l-15.996,15.996c-1.562,1.562-1.562,4.093,0,5.655 c0.781,0.781,1.805,1.171,2.827,1.171c1.023,0,2.047-0.391,2.828-1.171l15.996-15.996 C440.28,218.228,440.28,215.697,438.718,214.135z"/> </g> </g><g> <g> <path d="M486.705,214.135c-1.561-1.562-4.092-1.562-5.654,0l-15.996,15.996c-1.562,1.562-1.562,4.093,0,5.655 c0.781,0.781,1.804,1.171,2.827,1.171c1.024,0,2.047-0.391,2.828-1.171l15.995-15.996 C488.267,218.228,488.267,215.697,486.705,214.135z"/> </g> </g><g> <g> <path d="M14.824,478.075c-1.561-1.561-4.092-1.561-5.654,0l-7.998,7.998c-1.562,1.562-1.562,4.094,0,5.656 c0.781,0.779,1.804,1.17,2.827,1.17c1.024,0,2.047-0.391,2.827-1.17l7.998-7.998C16.386,482.169,16.386,479.637,14.824,478.075z"/> </g> </g><g> <g> <path d="M22.823,486.073l-7.998-7.998c-1.561-1.561-4.092-1.561-5.654,0c-1.562,1.562-1.562,4.094,0,5.656l7.998,7.998 c0.781,0.779,1.804,1.17,2.827,1.17s2.046-0.391,2.827-1.17C24.385,490.167,24.385,487.635,22.823,486.073z"/> </g> </g><g> <g> <path d="M30.821,478.075c-1.562-1.561-4.092-1.561-5.654,0l-7.998,7.998c-1.562,1.562-1.562,4.094,0,5.656 c0.781,0.779,1.804,1.17,2.827,1.17s2.046-0.391,2.827-1.17l7.998-7.998C32.383,482.169,32.383,479.637,30.821,478.075z"/> </g> </g><g> <g> <path d="M38.818,486.073l-7.998-7.998c-1.562-1.561-4.092-1.561-5.654,0c-1.562,1.562-1.562,4.094,0,5.656l7.998,7.998 c0.782,0.779,1.805,1.17,2.828,1.17c1.023,0,2.046-0.391,2.826-1.17C40.38,490.167,40.38,487.635,38.818,486.073z"/> </g> </g><g> <g> <path d="M46.817,478.075c-1.562-1.561-4.093-1.561-5.655,0l-7.998,7.998c-1.562,1.562-1.562,4.094,0,5.656 c0.782,0.779,1.805,1.17,2.828,1.17c1.023,0,2.046-0.391,2.827-1.17l7.998-7.998C48.379,482.169,48.379,479.637,46.817,478.075z"/> </g> </g><g> <g> <path d="M54.815,486.073l-7.998-7.998c-1.562-1.561-4.093-1.561-5.655,0c-1.562,1.562-1.562,4.094,0,5.656l7.998,7.998 c0.781,0.779,1.805,1.17,2.828,1.17s2.046-0.391,2.827-1.17C56.377,490.167,56.377,487.635,54.815,486.073z"/> </g> </g><g> <g> <path d="M62.813,478.075c-1.563-1.561-4.093-1.561-5.655,0l-7.998,7.998c-1.562,1.562-1.562,4.094,0,5.656 c0.781,0.779,1.805,1.17,2.828,1.17s2.046-0.391,2.827-1.17l7.998-7.998C64.375,482.169,64.375,479.637,62.813,478.075z"/> </g> </g><g> <g> <path d="M70.81,486.073l-7.998-7.998c-1.563-1.561-4.093-1.561-5.655,0c-1.562,1.562-1.562,4.094,0,5.656l7.998,7.998 c0.782,0.779,1.805,1.17,2.828,1.17s2.047-0.391,2.827-1.17C72.372,490.167,72.372,487.635,70.81,486.073z"/> </g> </g><g> <g> <path d="M78.808,478.075c-1.562-1.561-4.093-1.561-5.655,0l-7.998,7.998c-1.562,1.562-1.562,4.094,0,5.656 c0.782,0.779,1.805,1.17,2.828,1.17s2.047-0.391,2.827-1.17l7.998-7.998C80.37,482.169,80.37,479.637,78.808,478.075z"/> </g> </g><g> <g> <path d="M86.806,486.073l-7.998-7.998c-1.562-1.561-4.093-1.561-5.655,0c-1.562,1.562-1.562,4.094,0,5.656l7.998,7.998 c0.782,0.779,1.805,1.17,2.828,1.17c1.023,0,2.047-0.391,2.827-1.17C88.368,490.167,88.368,487.635,86.806,486.073z"/> </g> </g><g> <g> <path d="M94.804,478.075c-1.562-1.561-4.093-1.561-5.655,0l-7.998,7.998c-1.562,1.562-1.562,4.094,0,5.656 c0.782,0.779,1.805,1.17,2.828,1.17c1.023,0,2.047-0.391,2.827-1.17l7.998-7.998C96.366,482.169,96.366,479.637,94.804,478.075z"/> </g> </g><g> <g> <path d="M102.803,486.073l-7.998-7.998c-1.562-1.561-4.093-1.561-5.655,0c-1.562,1.562-1.562,4.094,0,5.656l7.998,7.998 c0.781,0.779,1.804,1.17,2.827,1.17s2.047-0.391,2.828-1.17C104.365,490.167,104.365,487.635,102.803,486.073z"/> </g> </g><g> <g> <path d="M110.801,478.075c-1.562-1.561-4.093-1.561-5.655,0l-7.998,7.998c-1.562,1.562-1.562,4.094,0,5.656 c0.781,0.779,1.804,1.17,2.827,1.17s2.047-0.391,2.828-1.17l7.998-7.998C112.363,482.169,112.363,479.637,110.801,478.075z"/> </g> </g><g> <g> <path d="M118.799,486.073l-7.998-7.998c-1.562-1.561-4.093-1.561-5.655,0c-1.562,1.562-1.562,4.094,0,5.656l7.998,7.998 c0.781,0.779,1.804,1.17,2.827,1.17c1.024,0,2.047-0.391,2.828-1.17C120.361,490.167,120.361,487.635,118.799,486.073z"/> </g> </g><g> <g> <path d="M126.796,478.075c-1.561-1.561-4.092-1.561-5.654,0l-7.998,7.998c-1.562,1.562-1.562,4.094,0,5.656 c0.781,0.779,1.804,1.17,2.827,1.17c1.024,0,2.047-0.391,2.827-1.17l7.998-7.998C128.358,482.169,128.358,479.637,126.796,478.075 z"/> </g> </g><g> <g> <path d="M134.794,486.073l-7.998-7.998c-1.561-1.561-4.092-1.561-5.654,0c-1.562,1.562-1.562,4.094,0,5.656l7.998,7.998 c0.781,0.779,1.804,1.17,2.827,1.17c1.024,0,2.047-0.391,2.827-1.17C136.356,490.167,136.356,487.635,134.794,486.073z"/> </g> </g><g> <g> <path d="M142.792,478.075c-1.561-1.561-4.092-1.561-5.654,0l-7.998,7.998c-1.562,1.562-1.562,4.094,0,5.656 c0.781,0.779,1.804,1.17,2.827,1.17c1.024,0,2.047-0.391,2.827-1.17l7.998-7.998C144.354,482.169,144.354,479.637,142.792,478.075 z"/> </g> </g><g> <g> <path d="M150.789,486.073l-7.998-7.998c-1.561-1.561-4.092-1.561-5.654,0c-1.562,1.562-1.562,4.094,0,5.656l7.998,7.998 c0.782,0.779,1.805,1.17,2.828,1.17c1.024,0,2.046-0.391,2.826-1.17C152.351,490.167,152.351,487.635,150.789,486.073z"/> </g> </g><g> <g> <path d="M158.788,478.075c-1.562-1.561-4.093-1.561-5.655,0l-7.998,7.998c-1.562,1.562-1.562,4.094,0,5.656 c0.782,0.779,1.805,1.17,2.828,1.17c1.024,0,2.046-0.391,2.827-1.17l7.998-7.998C160.35,482.169,160.35,479.637,158.788,478.075z"/> </g> </g><g> <g> <path d="M166.786,486.073l-7.998-7.998c-1.562-1.561-4.093-1.561-5.655,0c-1.562,1.562-1.562,4.094,0,5.656l7.998,7.998 c0.781,0.779,1.805,1.17,2.828,1.17s2.046-0.391,2.827-1.17C168.348,490.167,168.348,487.635,166.786,486.073z"/> </g> </g><g> <g> <path d="M174.784,478.075c-1.563-1.561-4.093-1.561-5.655,0l-7.998,7.998c-1.562,1.562-1.562,4.094,0,5.656 c0.781,0.779,1.805,1.17,2.828,1.17s2.046-0.391,2.827-1.17l7.998-7.998C176.346,482.169,176.346,479.637,174.784,478.075z"/> </g> </g><g> <g> <path d="M182.782,486.073l-7.998-7.998c-1.563-1.561-4.093-1.561-5.655,0c-1.562,1.562-1.562,4.094,0,5.656l7.998,7.998 c0.782,0.779,1.805,1.17,2.828,1.17c1.023,0,2.046-0.391,2.827-1.17C184.344,490.167,184.344,487.635,182.782,486.073z"/> </g> </g><g> <g> <path d="M190.78,478.075c-1.562-1.561-4.093-1.561-5.655,0l-7.998,7.998c-1.562,1.562-1.562,4.094,0,5.656 c0.782,0.779,1.805,1.17,2.828,1.17c1.023,0,2.046-0.391,2.827-1.17l7.998-7.998C192.342,482.169,192.342,479.637,190.78,478.075z "/> </g> </g><g> <g> <path d="M198.778,486.073l-7.998-7.998c-1.562-1.561-4.093-1.561-5.655,0c-1.562,1.562-1.562,4.094,0,5.656l7.998,7.998 c0.782,0.779,1.805,1.17,2.828,1.17s2.047-0.391,2.827-1.17C200.34,490.167,200.34,487.635,198.778,486.073z"/> </g> </g><g> <g> <path d="M206.776,478.075c-1.562-1.561-4.093-1.561-5.655,0l-7.998,7.998c-1.562,1.562-1.562,4.094,0,5.656 c0.782,0.779,1.805,1.17,2.828,1.17s2.047-0.391,2.827-1.17l7.998-7.998C208.338,482.169,208.338,479.637,206.776,478.075z"/> </g> </g><g> <g> <path d="M214.775,486.073l-7.998-7.998c-1.562-1.561-4.093-1.561-5.655,0c-1.562,1.562-1.562,4.094,0,5.656l7.998,7.998 c0.781,0.779,1.804,1.17,2.827,1.17c1.023,0,2.047-0.391,2.828-1.17C216.337,490.167,216.337,487.635,214.775,486.073z"/> </g> </g><g> <g> <path d="M222.773,478.075c-1.562-1.561-4.093-1.561-5.655,0l-7.998,7.998c-1.562,1.562-1.562,4.094,0,5.656 c0.781,0.779,1.804,1.17,2.827,1.17c1.023,0,2.047-0.391,2.828-1.17l7.998-7.998C224.335,482.169,224.335,479.637,222.773,478.075 z"/> </g> </g><g> <g> <path d="M230.771,486.073l-7.998-7.998c-1.562-1.561-4.093-1.561-5.655,0c-1.562,1.562-1.562,4.094,0,5.656l7.998,7.998 c0.781,0.779,1.804,1.17,2.827,1.17s2.047-0.391,2.828-1.17C232.333,490.167,232.333,487.635,230.771,486.073z"/> </g> </g><g> <g> <path d="M238.769,478.075c-1.562-1.561-4.093-1.561-5.655,0l-7.998,7.998c-1.562,1.562-1.562,4.094,0,5.656 c0.781,0.779,1.804,1.17,2.827,1.17s2.047-0.391,2.828-1.17l7.998-7.998C240.331,482.169,240.331,479.637,238.769,478.075z"/> </g> </g><g> <g> <path d="M246.767,486.073l-7.998-7.998c-1.562-1.561-4.093-1.561-5.655,0c-1.562,1.562-1.562,4.094,0,5.656l7.998,7.998 c0.781,0.779,1.804,1.17,2.827,1.17c1.023,0,2.046-0.391,2.828-1.17C248.329,490.167,248.329,487.635,246.767,486.073z"/> </g> </g><g> <g> <path d="M278.758,486.073c-1.561-1.562-4.093-1.562-5.655,0l-7.998,7.998c-1.562,1.562-1.562,4.094,0,5.656 c0.781,0.779,1.805,1.17,2.828,1.17c1.024,0,2.046-0.391,2.827-1.17l7.998-7.998C280.32,490.167,280.32,487.635,278.758,486.073z"/> </g> </g><g> <g> <path d="M286.756,494.071l-7.998-7.998c-1.561-1.562-4.093-1.562-5.655,0s-1.562,4.094,0,5.656l7.998,7.998 c0.781,0.779,1.805,1.17,2.828,1.17c1.024,0,2.046-0.391,2.827-1.17C288.318,498.165,288.318,495.633,286.756,494.071z"/> </g> </g><g> <g> <path d="M294.754,486.073c-1.562-1.562-4.093-1.562-5.655,0l-7.998,7.998c-1.562,1.562-1.562,4.094,0,5.656 c0.781,0.779,1.805,1.17,2.828,1.17c1.024,0,2.046-0.391,2.827-1.17l7.998-7.998C296.316,490.167,296.316,487.635,294.754,486.073 z"/> </g> </g><g> <g> <path d="M302.752,494.071l-7.998-7.998c-1.562-1.562-4.093-1.562-5.655,0s-1.562,4.094,0,5.656l7.998,7.998 c0.781,0.779,1.805,1.17,2.828,1.17s2.046-0.391,2.827-1.17C304.314,498.165,304.314,495.633,302.752,494.071z"/> </g> </g><g> <g> <path d="M310.75,486.073c-1.562-1.562-4.093-1.562-5.655,0l-7.998,7.998c-1.562,1.562-1.562,4.094,0,5.656 c0.781,0.779,1.805,1.17,2.828,1.17s2.046-0.391,2.827-1.17l7.998-7.998C312.312,490.167,312.312,487.635,310.75,486.073z"/> </g> </g><g> <g> <path d="M318.748,494.071l-7.998-7.998c-1.562-1.562-4.093-1.562-5.655,0s-1.562,4.094,0,5.656l7.998,7.998 c0.781,0.779,1.805,1.17,2.828,1.17s2.046-0.391,2.827-1.17C320.31,498.165,320.31,495.633,318.748,494.071z"/> </g> </g><g> <g> <path d="M326.746,486.073c-1.562-1.562-4.093-1.562-5.655,0l-7.998,7.998c-1.562,1.562-1.562,4.094,0,5.656 c0.781,0.779,1.805,1.17,2.828,1.17s2.046-0.391,2.827-1.17l7.998-7.998C328.308,490.167,328.308,487.635,326.746,486.073z"/> </g> </g><g> <g> <path d="M334.743,494.071l-7.997-7.998c-1.562-1.562-4.093-1.562-5.655,0s-1.562,4.094,0,5.656l7.998,7.998 c0.781,0.779,1.805,1.17,2.827,1.17c1.024,0,2.047-0.391,2.827-1.17C336.305,498.165,336.305,495.633,334.743,494.071z"/> </g> </g><g> <g> <path d="M342.741,486.073c-1.561-1.562-4.092-1.562-5.654,0l-7.998,7.998c-1.562,1.562-1.562,4.094,0,5.656 c0.781,0.779,1.805,1.17,2.827,1.17c1.024,0,2.047-0.391,2.827-1.17l7.998-7.998C344.303,490.167,344.303,487.635,342.741,486.073 z"/> </g> </g><g> <g> <path d="M350.74,494.071l-7.998-7.998c-1.561-1.562-4.092-1.562-5.654,0s-1.562,4.094,0,5.656l7.998,7.998 c0.781,0.779,1.805,1.17,2.827,1.17c1.023,0,2.046-0.391,2.827-1.17C352.302,498.165,352.302,495.633,350.74,494.071z"/> </g> </g><g> <g> <path d="M358.738,486.073c-1.561-1.562-4.092-1.562-5.654,0l-7.998,7.998c-1.562,1.562-1.562,4.094,0,5.656 c0.781,0.779,1.805,1.17,2.827,1.17c1.023,0,2.046-0.391,2.827-1.17l7.998-7.998C360.3,490.167,360.3,487.635,358.738,486.073z"/> </g> </g><g> <g> <path d="M366.736,494.071l-7.998-7.998c-1.561-1.562-4.092-1.562-5.654,0s-1.562,4.094,0,5.656l7.998,7.998 c0.781,0.779,1.804,1.17,2.827,1.17s2.046-0.391,2.827-1.17C368.298,498.165,368.298,495.633,366.736,494.071z"/> </g> </g><g> <g> <path d="M374.734,486.073c-1.561-1.562-4.092-1.562-5.654,0l-7.998,7.998c-1.562,1.562-1.562,4.094,0,5.656 c0.781,0.779,1.804,1.17,2.827,1.17s2.046-0.391,2.827-1.17l7.998-7.998C376.296,490.167,376.296,487.635,374.734,486.073z"/> </g> </g><g> <g> <path d="M382.732,494.071l-7.998-7.998c-1.561-1.562-4.092-1.562-5.654,0s-1.562,4.094,0,5.656l7.998,7.998 c0.781,0.779,1.804,1.17,2.827,1.17s2.046-0.391,2.827-1.17C384.294,498.165,384.294,495.633,382.732,494.071z"/> </g> </g><g> <g> <path d="M390.73,486.073c-1.562-1.562-4.092-1.562-5.654,0l-7.998,7.998c-1.562,1.562-1.562,4.094,0,5.656 c0.781,0.779,1.804,1.17,2.827,1.17s2.046-0.391,2.827-1.17l7.998-7.998C392.292,490.167,392.292,487.635,390.73,486.073z"/> </g> </g><g> <g> <path d="M398.728,494.071l-7.998-7.998c-1.562-1.562-4.092-1.562-5.654,0s-1.562,4.094,0,5.656l7.998,7.998 c0.78,0.779,1.804,1.17,2.827,1.17c1.022,0,2.046-0.391,2.827-1.17C400.29,498.165,400.29,495.633,398.728,494.071z"/> </g> </g><g> <g> <path d="M406.726,486.073c-1.562-1.562-4.092-1.562-5.654,0l-7.998,7.998c-1.562,1.562-1.562,4.094,0,5.656 c0.78,0.779,1.804,1.17,2.827,1.17c1.022,0,2.046-0.391,2.827-1.17l7.998-7.998C408.288,490.167,408.288,487.635,406.726,486.073z "/> </g> </g><g> <g> <path d="M414.724,494.071l-7.998-7.998c-1.562-1.562-4.092-1.562-5.654,0s-1.562,4.094,0,5.656l7.997,7.998 c0.781,0.779,1.805,1.17,2.827,1.17c1.023,0,2.047-0.391,2.828-1.17C416.286,498.165,416.286,495.633,414.724,494.071z"/> </g> </g><g> <g> <path d="M422.722,486.073c-1.562-1.562-4.093-1.562-5.655,0l-7.998,7.998c-1.562,1.562-1.562,4.094,0,5.656 c0.781,0.779,1.805,1.17,2.827,1.17c1.023,0,2.047-0.391,2.828-1.17l7.998-7.998C424.284,490.167,424.284,487.635,422.722,486.073 z"/> </g> </g><g> <g> <path d="M430.72,494.071l-7.998-7.998c-1.562-1.562-4.093-1.562-5.655,0s-1.562,4.094,0,5.656l7.998,7.998 c0.781,0.779,1.805,1.17,2.827,1.17c1.023,0,2.047-0.391,2.828-1.17C432.282,498.165,432.282,495.633,430.72,494.071z"/> </g> </g><g> <g> <path d="M438.718,486.073c-1.562-1.562-4.093-1.562-5.655,0l-7.998,7.998c-1.562,1.562-1.562,4.094,0,5.656 c0.781,0.779,1.805,1.17,2.827,1.17c1.023,0,2.047-0.391,2.828-1.17l7.998-7.998C440.28,490.167,440.28,487.635,438.718,486.073z"/> </g> </g><g> <g> <path d="M446.716,494.071l-7.998-7.998c-1.562-1.562-4.093-1.562-5.655,0s-1.562,4.094,0,5.656l7.998,7.998 c0.781,0.779,1.804,1.17,2.827,1.17c1.024,0,2.047-0.391,2.828-1.17C448.278,498.165,448.278,495.633,446.716,494.071z"/> </g> </g><g> <g> <path d="M454.714,486.073c-1.562-1.562-4.093-1.562-5.655,0l-7.998,7.998c-1.562,1.562-1.562,4.094,0,5.656 c0.781,0.779,1.804,1.17,2.827,1.17c1.024,0,2.047-0.391,2.828-1.17l7.998-7.998C456.276,490.167,456.276,487.635,454.714,486.073 z"/> </g> </g><g> <g> <path d="M462.712,494.071l-7.998-7.998c-1.562-1.562-4.093-1.562-5.655,0s-1.562,4.094,0,5.656l7.998,7.998 c0.781,0.779,1.804,1.17,2.827,1.17c1.024,0,2.047-0.391,2.828-1.17C464.274,498.165,464.274,495.633,462.712,494.071z"/> </g> </g><g> <g> <path d="M470.71,486.073c-1.562-1.562-4.093-1.562-5.655,0l-7.998,7.998c-1.562,1.562-1.562,4.094,0,5.656 c0.781,0.779,1.804,1.17,2.827,1.17c1.024,0,2.047-0.391,2.828-1.17l7.998-7.998C472.272,490.167,472.272,487.635,470.71,486.073z "/> </g> </g><g> <g> <path d="M478.707,494.071l-7.997-7.998c-1.562-1.562-4.093-1.562-5.655,0s-1.562,4.094,0,5.656l7.998,7.998 c0.78,0.779,1.804,1.17,2.827,1.17c1.024,0,2.047-0.391,2.827-1.17C480.269,498.165,480.269,495.633,478.707,494.071z"/> </g> </g><g> <g> <path d="M486.705,486.073c-1.561-1.562-4.092-1.562-5.654,0l-7.998,7.998c-1.562,1.562-1.562,4.094,0,5.656 c0.78,0.779,1.804,1.17,2.827,1.17c1.024,0,2.047-0.391,2.827-1.17l7.998-7.998C488.267,490.167,488.267,487.635,486.705,486.073z "/> </g> </g><g> <g> <path d="M494.703,494.071l-7.998-7.998c-1.561-1.562-4.092-1.562-5.654,0s-1.562,4.094,0,5.656l7.998,7.998 c0.78,0.779,1.804,1.17,2.827,1.17c1.024,0,2.047-0.391,2.827-1.17C496.265,498.165,496.265,495.633,494.703,494.071z"/> </g> </g><g> <g> <path d="M502.701,486.073c-1.561-1.562-4.093-1.562-5.655,0l-7.997,7.998c-1.562,1.562-1.562,4.094,0,5.656 c0.78,0.779,1.804,1.17,2.827,1.17c1.024,0,2.047-0.391,2.827-1.17l7.998-7.998C504.263,490.167,504.263,487.635,502.701,486.073z "/> </g> </g><g> <g> <path d="M510.7,494.071l-7.998-7.998c-1.561-1.562-4.093-1.562-5.655,0s-1.562,4.094,0,5.656l7.998,7.998 c0.781,0.779,1.805,1.17,2.828,1.17s2.045-0.391,2.827-1.17C512.262,498.165,512.262,495.633,510.7,494.071z"/> </g> </g><g> <g> <path d="M251.937,244.962c-2.21,0-3.999,1.789-3.999,3.999v183.954c0,2.211,1.789,4,3.999,4c2.21,0,3.999-1.79,3.999-4.001 V248.961C255.936,246.751,254.147,244.962,251.937,244.962z"/> </g> </g><g> <g> <path d="M275.931,308.946c-2.211,0-3.999,1.789-3.999,4v79.978c0,2.211,1.788,4,3.999,4c2.21,0,3.999-1.789,3.999-3.999v-79.979 C279.93,310.735,278.141,308.946,275.931,308.946z"/> </g> </g><g> <g> <path d="M227.943,324.942c-2.21,0-3.999,1.789-3.999,4v39.988c0,2.211,1.789,4,3.999,4c2.211,0,3.999-1.789,3.999-4v-39.988 C231.942,326.731,230.154,324.942,227.943,324.942z"/> </g> </g><g> <g> <path d="M243.939,308.946c-11.024,0-19.995,8.975-19.995,19.996c0,2.209,1.789,3.998,3.999,3.998c2.211,0,3.999-1.789,3.999-3.998 c0-6.617,5.382-11.998,11.997-11.998c2.21,0,3.999-1.789,3.999-3.998C247.938,310.735,246.149,308.946,243.939,308.946z"/> </g> </g><g> <g> <path d="M259.935,292.95c-2.211,0-3.999,1.789-3.999,4c0,2.209,1.788,3.998,3.999,3.998c6.615,0,11.997,5.383,11.997,11.998 c0,2.209,1.788,3.998,3.999,3.998c2.21,0,3.999-1.789,3.999-3.998C279.93,301.925,270.963,292.95,259.935,292.95z"/> </g> </g><g> <g> <path d="M275.931,324.942c-2.211,0-3.999,1.789-3.999,4c0,2.209,1.788,3.998,3.999,3.998c6.615,0,11.997,5.381,11.997,11.998 c0,2.209,1.788,3.998,3.999,3.998c2.21,0,3.998-1.789,3.998-3.998C295.925,333.917,286.959,324.942,275.931,324.942z"/> </g> </g><g> <g> <path d="M227.943,340.938c-2.21,0-3.999,1.789-3.999,4c0,2.209-1.792,3.998-3.999,3.998c-2.21,0-3.999,1.789-3.999,3.998 c0,2.211,1.789,4,3.999,4c6.616,0,11.997-5.381,11.997-11.996C231.942,342.727,230.154,340.938,227.943,340.938z"/> </g> </g><g> <g> <path d="M283.929,396.924c-2.203,0-3.999-1.789-3.999-4c0-2.209-1.789-3.998-3.999-3.998c-2.211,0-3.999,1.789-3.999,3.998 c0,6.615,5.382,11.998,11.997,11.998c2.21,0,3.999-1.789,3.999-4C287.928,398.713,286.139,396.924,283.929,396.924z"/> </g> </g><g> <g> <path d="M227.943,364.932c-2.21,0-3.999,1.789-3.999,3.998c0,2.211-1.792,4-3.999,4c-2.21,0-3.999,1.789-3.999,3.998 c0,2.211,1.789,4,3.999,4c6.616,0,11.997-5.381,11.997-11.998C231.942,366.721,230.154,364.932,227.943,364.932z"/> </g> </g></symbol><symbol id="volume-control" viewBox="0 0 51.498 51.498"><title>volume-control</title><path d="M25.749,17.249c-4.541,0-8.81,1.769-12.021,4.979s-4.979,7.479-4.979,12.021s1.769,8.81,4.979,12.021 s7.479,4.979,12.021,4.979s8.81-1.769,12.021-4.979s4.979-7.479,4.979-12.021s-1.769-8.81-4.979-12.021S30.29,17.249,25.749,17.249 z M36.355,44.855c-2.833,2.833-6.6,4.394-10.606,4.394s-7.773-1.561-10.606-4.394s-4.394-6.6-4.394-10.606 s1.561-7.773,4.394-10.606s6.6-4.394,10.606-4.394c3.671,0,7.131,1.323,9.865,3.721L25.042,33.542 c-0.391,0.391-0.391,1.023,0,1.414c0.195,0.195,0.451,0.293,0.707,0.293s0.512-0.098,0.707-0.293l10.572-10.572 c2.398,2.734,3.721,6.194,3.721,9.865C40.749,38.256,39.188,42.022,36.355,44.855z"/><path d="M25.749,8.249c0.553,0,1-0.447,1-1v-6c0-0.553-0.447-1-1-1s-1,0.447-1,1v6C24.749,7.802,25.196,8.249,25.749,8.249z"/><path d="M51.205,10.793c-0.391-0.391-1.023-0.391-1.414,0l-4.243,4.243c-0.391,0.391-0.391,1.023,0,1.414 c0.195,0.195,0.451,0.293,0.707,0.293s0.512-0.098,0.707-0.293l4.243-4.243C51.596,11.816,51.596,11.184,51.205,10.793z"/><path d="M1.707,10.793c-0.391-0.391-1.023-0.391-1.414,0s-0.391,1.023,0,1.414l4.243,4.243c0.195,0.195,0.451,0.293,0.707,0.293 s0.512-0.098,0.707-0.293c0.391-0.391,0.391-1.023,0-1.414L1.707,10.793z"/><path d="M32.996,9.203c0.087,0.023,0.174,0.034,0.26,0.034c0.441,0,0.846-0.295,0.965-0.741L35.773,2.7 c0.143-0.533-0.174-1.082-0.707-1.225c-0.531-0.142-1.082,0.174-1.225,0.707l-1.553,5.796C32.146,8.512,32.463,9.061,32.996,9.203z "/><path d="M17.277,8.496c0.119,0.447,0.523,0.741,0.965,0.741c0.086,0,0.173-0.011,0.26-0.034c0.533-0.143,0.85-0.691,0.707-1.225 l-1.553-5.796c-0.143-0.534-0.691-0.85-1.225-0.707s-0.85,0.691-0.707,1.225L17.277,8.496z"/><path d="M43.749,5.072c-0.478-0.275-1.09-0.111-1.366,0.366l-3,5.196c-0.276,0.479-0.112,1.09,0.366,1.366 c0.157,0.091,0.329,0.134,0.499,0.134c0.346,0,0.682-0.18,0.867-0.5l3-5.196C44.392,5.96,44.228,5.349,43.749,5.072z"/><path d="M11.25,12.135c0.17,0,0.342-0.043,0.499-0.134c0.479-0.276,0.643-0.888,0.366-1.366l-3-5.196 C8.838,4.959,8.225,4.797,7.749,5.072C7.271,5.349,7.106,5.96,7.383,6.438l3,5.196C10.568,11.956,10.904,12.135,11.25,12.135z"/></symbol><symbol id="monitor" viewBox="0 0 511.999 511.999"><title>monitor</title><g> <g> <path d="M386.455,198.212l-53.811-53.811c-3.253-3.254-8.528-3.255-11.784,0c-3.254,3.253-3.254,8.529,0,11.783l47.92,47.92 l-47.92,47.919c-3.254,3.253-3.254,8.529,0,11.783c1.628,1.628,3.76,2.441,5.892,2.441c2.132,0,4.265-0.814,5.891-2.44 l53.811-53.811C389.709,206.742,389.709,201.466,386.455,198.212z"/> </g> </g><g> <g> <path d="M143.223,204.102l47.919-47.92c3.254-3.253,3.254-8.529,0-11.783c-3.253-3.254-8.529-3.254-11.783,0l-53.811,53.811 c-3.254,3.253-3.254,8.529,0,11.783l53.811,53.811c1.626,1.628,3.759,2.441,5.891,2.441s4.265-0.814,5.891-2.442 c3.254-3.253,3.254-8.529,0-11.783L143.223,204.102z"/> </g> </g><g> <g> <path d="M283.22,118.176c-4.386-1.39-9.07,1.041-10.458,5.427L223.356,279.57c-1.39,4.387,1.04,9.07,5.427,10.46 c0.838,0.266,1.685,0.391,2.519,0.391c3.535,0,6.816-2.269,7.941-5.818l49.404-155.967 C290.037,124.248,287.607,119.565,283.22,118.176z"/> </g> </g><g> <g> <path d="M471.246,24.766H40.754C18.283,24.766,0,43.049,0,65.52v59.227c0,4.602,3.731,8.332,8.332,8.332 c4.601,0,8.332-3.731,8.332-8.332V65.52c0-13.284,10.807-24.09,24.09-24.09h430.492c13.284,0,24.09,10.807,24.09,24.09v284.411 h-52.21c-4.602,0-8.332,3.731-8.332,8.332s3.731,8.332,8.332,8.332h52.21v15.273c0,13.284-10.807,24.09-24.09,24.09h-155.41 H196.164H40.754c-13.284,0-24.09-10.807-24.09-24.09v-15.273h398.688c4.602,0,8.332-3.731,8.332-8.332s-3.731-8.332-8.332-8.332 H16.664V152.522c0-4.602-3.731-8.332-8.332-8.332c-4.601,0-8.332,3.73-8.332,8.332V381.87c0,22.472,18.283,40.754,40.754,40.754 H183.54l-20.494,47.945h-40.034c-4.602,0-8.332,3.731-8.332,8.332s3.731,8.332,8.332,8.332h265.975 c4.602,0,8.332-3.731,8.332-8.332s-3.731-8.332-8.332-8.332h-40.034l-20.494-47.945h142.786c22.472,0,40.754-18.282,40.754-40.754 V65.52C512,43.049,493.717,24.766,471.246,24.766z M330.83,470.568H181.17l14.238-33.31h121.185L330.83,470.568z"/> </g> </g><g> <g> <path d="M262.924,379.679c-1.914-2.906-5.583-4.299-8.952-3.457c-3.517,0.879-6.116,4.048-6.291,7.67 c-0.364,7.534,9.106,11.629,14.33,6.172C264.674,387.282,265.089,382.887,262.924,379.679z"/> </g> </g></symbol><symbol id="report" viewBox="0 0 388.8 388.8"><title>report</title><g> <g> <path d="M380.8,317.6h-308V8c0-4.8-3.2-8-8-8c-4.8,0-8,3.2-8,8v309.6H8c-4.8,0-8,3.2-8,8s3.2,8,8,8h48.8v47.2c0,4.8,3.2,8,8,8 c4.8,0,8-3.2,8-8v-47.2h308c4.8,0,8-3.2,8-8S384.8,317.6,380.8,317.6z"/> </g> </g><g> <g> <path d="M328,179.2l43.2-45.6c3.2-3.2,3.2-8,0-11.2s-8-3.2-11.2,0l-42.4,44.8L219.2,61.6c-1.6-1.6-4-2.4-5.6-2.4 c-2.4,0-4,0.8-5.6,2.4L100.8,176c-3.2,3.2-3.2,8,0.8,11.2c3.2,3.2,8,3.2,11.2-0.8l100-108l92.8,100.8l-41.6,44l-49.6-62.4 c-1.6-1.6-3.2-3.2-5.6-3.2c-2.4,0-4.8,0.8-6.4,2.4l-100.8,99.2c-3.2,3.2-3.2,8,0,11.2c1.6,1.6,4,2.4,5.6,2.4c2.4,0,4-0.8,5.6-2.4 l95.2-93.6l49.6,63.2c1.6,1.6,4,3.2,5.6,3.2c2.4,0,4.8-0.8,6.4-2.4l47.2-49.6l42.4,46.4c1.6,1.6,4,2.4,5.6,2.4 c1.6,0,4-0.8,5.6-2.4c3.2-3.2,3.2-8,0.8-11.2L328,179.2z"/> </g> </g></symbol><symbol id="profit" viewBox="0 -15 937.5 937"><title>profit</title><path d="M 234.375 500.25 L 46.875 500.25 C 20.992188 500.25 0 521.242188 0 547.125 L 0 859.625 C 0 885.507812 20.992188 906.5 46.875 906.5 L 234.375 906.5 C 260.257812 906.5 281.25 885.507812 281.25 859.625 L 281.25 547.125 C 281.25 521.242188 260.257812 500.25 234.375 500.25 Z M 250 859.625 C 250 868.257812 243.007812 875.25 234.375 875.25 L 46.875 875.25 C 38.242188 875.25 31.25 868.257812 31.25 859.625 L 31.25 547.125 C 31.25 538.492188 38.242188 531.5 46.875 531.5 L 234.375 531.5 C 243.007812 531.5 250 538.492188 250 547.125 Z M 250 859.625 " style=" stroke:none;fill-rule:nonzero;fill:rgb(0%,0%,0%);fill-opacity:1;"/><path d="M 890.625 344 L 703.125 344 C 677.242188 344 656.25 364.992188 656.25 390.875 L 656.25 859.625 C 656.25 885.507812 677.242188 906.5 703.125 906.5 L 890.625 906.5 C 916.507812 906.5 937.5 885.507812 937.5 859.625 L 937.5 390.875 C 937.5 364.992188 916.507812 344 890.625 344 Z M 906.25 859.625 C 906.25 868.257812 899.257812 875.25 890.625 875.25 L 703.125 875.25 C 694.492188 875.25 687.5 868.257812 687.5 859.625 L 687.5 390.875 C 687.5 382.242188 694.492188 375.25 703.125 375.25 L 890.625 375.25 C 899.257812 375.25 906.25 382.242188 906.25 390.875 Z M 906.25 859.625 " style=" stroke:none;fill-rule:nonzero;fill:rgb(0%,0%,0%);fill-opacity:1;"/><path d="M 562.5 422.125 L 375 422.125 C 349.117188 422.125 328.125 443.117188 328.125 469 L 328.125 859.625 C 328.125 885.507812 349.117188 906.5 375 906.5 L 562.5 906.5 C 588.382812 906.5 609.375 885.507812 609.375 859.625 L 609.375 469 C 609.375 443.117188 588.382812 422.125 562.5 422.125 Z M 578.125 859.625 C 578.125 868.257812 571.132812 875.25 562.5 875.25 L 375 875.25 C 366.367188 875.25 359.375 868.257812 359.375 859.625 L 359.375 469 C 359.375 460.367188 366.367188 453.375 375 453.375 L 562.5 453.375 C 571.132812 453.375 578.125 460.367188 578.125 469 Z M 578.125 859.625 " style=" stroke:none;fill-rule:nonzero;fill:rgb(0%,0%,0%);fill-opacity:1;"/><path d="M 582.703125 323.796875 C 588.808594 329.894531 598.691406 329.894531 604.796875 323.796875 L 875 53.59375 L 875 78.375 C 875 87.007812 881.992188 94 890.625 94 C 899.257812 94 906.25 87.007812 906.25 78.375 L 906.25 15.875 C 906.210938 14.007812 905.851562 12.160156 905.15625 10.414062 C 904.941406 9.890625 904.695312 9.371094 904.433594 8.851562 C 903.847656 7.691406 903.117188 6.597656 902.25 5.609375 C 900.855469 3.882812 899.070312 2.519531 897.03125 1.640625 C 896.882812 1.640625 896.78125 1.460938 896.636719 1.414062 C 894.902344 0.726562 893.066406 0.359375 891.207031 0.324219 C 890.96875 0.359375 890.816406 0.25 890.625 0.25 L 828.125 0.25 C 819.492188 0.25 812.5 7.242188 812.5 15.875 C 812.5 24.507812 819.492188 31.5 828.125 31.5 L 852.90625 31.5 L 593.75 290.65625 L 456.359375 153.265625 C 450.253906 147.167969 440.371094 147.167969 434.265625 153.265625 L 273.4375 314.09375 L 198.546875 239.203125 C 192.441406 233.105469 182.558594 233.105469 176.453125 239.203125 L 35.828125 379.828125 C 31.765625 383.746094 30.136719 389.5625 31.566406 395.023438 C 33 400.488281 37.261719 404.75 42.726562 406.183594 C 48.1875 407.613281 54.003906 405.984375 57.921875 401.921875 L 187.5 272.34375 L 262.390625 347.234375 C 268.496094 353.332031 278.378906 353.332031 284.484375 347.234375 L 445.3125 186.40625 Z M 582.703125 323.796875 " style=" stroke:none;fill-rule:nonzero;fill:rgb(0%,0%,0%);fill-opacity:1;"/></symbol><symbol id="whiteboard" viewBox="0 0 512 512"><title>whiteboard</title><g> <g> <path d="M145.067,170.667h-76.8c-4.71,0-8.533,3.823-8.533,8.533s3.823,8.533,8.533,8.533h76.8c4.71,0,8.533-3.823,8.533-8.533 S149.777,170.667,145.067,170.667z"/> </g> </g><g> <g> <path d="M93.867,204.8h-25.6c-4.71,0-8.533,3.823-8.533,8.533c0,4.71,3.823,8.533,8.533,8.533h25.6 c4.71,0,8.533-3.823,8.533-8.533C102.4,208.623,98.577,204.8,93.867,204.8z"/> </g> </g><g> <g> <path d="M145.067,204.8H128c-4.71,0-8.533,3.823-8.533,8.533c0,4.71,3.823,8.533,8.533,8.533h17.067 c4.71,0,8.533-3.823,8.533-8.533C153.6,208.623,149.777,204.8,145.067,204.8z"/> </g> </g><g> <g> <path d="M128,136.533H68.267c-4.71,0-8.533,3.823-8.533,8.533c0,4.71,3.823,8.533,8.533,8.533H128c4.71,0,8.533-3.823,8.533-8.533 C136.533,140.356,132.71,136.533,128,136.533z"/> </g> </g><g> <g> <path d="M435.2,290.133h-68.267c-4.71,0-8.533,3.823-8.533,8.533s3.823,8.533,8.533,8.533H435.2c4.71,0,8.533-3.823,8.533-8.533 S439.91,290.133,435.2,290.133z"/> </g> </g><g> <g> <path d="M401.067,324.267h-34.133c-4.71,0-8.533,3.823-8.533,8.533c0,4.71,3.823,8.533,8.533,8.533h34.133 c4.71,0,8.533-3.823,8.533-8.533C409.6,328.09,405.777,324.267,401.067,324.267z"/> </g> </g><g> <g> <path d="M435.2,213.333h-68.267c-4.71,0-8.533,3.823-8.533,8.533c0,4.71,3.823,8.533,8.533,8.533H435.2 c4.71,0,8.533-3.823,8.533-8.533C443.733,217.156,439.91,213.333,435.2,213.333z"/> </g> </g><g> <g> <path d="M401.067,247.467h-34.133c-4.71,0-8.533,3.823-8.533,8.533s3.823,8.533,8.533,8.533h34.133 c4.71,0,8.533-3.823,8.533-8.533S405.777,247.467,401.067,247.467z"/> </g> </g><g> <g> <path d="M435.2,136.533h-68.267c-4.71,0-8.533,3.823-8.533,8.533c0,4.71,3.823,8.533,8.533,8.533H435.2 c4.71,0,8.533-3.823,8.533-8.533C443.733,140.356,439.91,136.533,435.2,136.533z"/> </g> </g><g> <g> <path d="M401.067,170.667h-34.133c-4.71,0-8.533,3.823-8.533,8.533s3.823,8.533,8.533,8.533h34.133 c4.71,0,8.533-3.823,8.533-8.533S405.777,170.667,401.067,170.667z"/> </g> </g><g> <g> <path d="M321.442,241.126c-3.499-3.166-8.9-2.867-12.049,0.631l-70.784,78.643L202.3,284.1c-3.337-3.337-8.73-3.337-12.066,0 l-42.667,42.667c-3.337,3.337-3.337,8.73,0,12.066c1.664,1.664,3.849,2.5,6.033,2.5c2.185,0,4.369-0.836,6.033-2.5l36.634-36.634 l36.634,36.642c1.647,1.655,3.857,2.569,6.255,2.492c2.338-0.06,4.557-1.084,6.118-2.825l76.8-85.333 C325.231,249.668,324.949,244.275,321.442,241.126z"/> </g> </g><g> <g> <path d="M158.933,326.144l-42.667-34.133c-3.115-2.492-7.543-2.492-10.658,0l-42.667,34.133 c-3.678,2.935-4.275,8.311-1.331,11.989c2.935,3.686,8.311,4.267,11.989,1.331l37.333-29.867l37.342,29.867 c1.57,1.254,3.456,1.869,5.325,1.869c2.492,0,4.975-1.092,6.664-3.2C163.209,334.456,162.62,329.088,158.933,326.144z"/> </g> </g><g> <g> <path d="M315.733,238.933h-42.667c-4.71,0-8.533,3.823-8.533,8.533s3.823,8.533,8.533,8.533h42.667 c4.71,0,8.533-3.823,8.533-8.533S320.444,238.933,315.733,238.933z"/> </g> </g><g> <g> <path d="M315.733,238.933c-4.71,0-8.533,3.823-8.533,8.533v42.667c0,4.71,3.823,8.533,8.533,8.533s8.533-3.823,8.533-8.533 v-42.667C324.267,242.756,320.444,238.933,315.733,238.933z"/> </g> </g><g> <g> <path d="M221.867,128c-28.237,0-51.2,22.963-51.2,51.2s22.963,51.2,51.2,51.2c28.237,0,51.2-22.963,51.2-51.2 S250.103,128,221.867,128z M221.867,213.333c-18.825,0-34.133-15.309-34.133-34.133s15.309-34.133,34.133-34.133 S256,160.375,256,179.2S240.691,213.333,221.867,213.333z"/> </g> </g><g> <g> <path d="M503.467,68.267H8.533C3.823,68.267,0,72.09,0,76.8v315.733c0,4.71,3.823,8.533,8.533,8.533h494.933 c4.71,0,8.533-3.823,8.533-8.533V76.8C512,72.09,508.177,68.267,503.467,68.267z M494.933,384H17.067V85.333h477.867V384z"/> </g> </g><g> <g> <path d="M486.4,384H25.6c-4.71,0-8.533,3.823-8.533,8.533v34.133c0,4.71,3.823,8.533,8.533,8.533h460.8 c4.71,0,8.533-3.823,8.533-8.533v-34.133C494.933,387.823,491.11,384,486.4,384z M477.867,418.133H34.133v-17.067h443.733V418.133 z"/> </g> </g><g> <g> <path d="M401.067,34.133H110.933c-4.71,0-8.533,3.823-8.533,8.533V76.8c0,4.71,3.823,8.533,8.533,8.533h290.133 c4.71,0,8.533-3.823,8.533-8.533V42.667C409.6,37.956,405.777,34.133,401.067,34.133z M392.533,68.267H119.467V51.2h273.067 V68.267z"/> </g> </g><g> <g> <path d="M256,0c-23.526,0-42.667,19.14-42.667,42.667c0,4.71,3.823,8.533,8.533,8.533h68.267c4.71,0,8.533-3.823,8.533-8.533 C298.667,19.14,279.526,0,256,0z M231.859,34.133c3.524-9.933,13.013-17.067,24.141-17.067c11.128,0,20.617,7.134,24.132,17.067 H231.859z"/> </g> </g><g> <g> <path d="M405.18,477.269l-29.423-54.647c-1.485-2.765-4.369-4.489-7.509-4.489h-34.133c-3.004,0-5.786,1.579-7.322,4.156 c-1.545,2.577-1.613,5.777-0.188,8.422l37.094,68.89c4.113,7.646,12.058,12.399,20.745,12.399c8.371,0,15.932-4.292,20.216-11.477 C408.96,493.329,409.148,484.642,405.18,477.269z M390.016,491.768c-0.563,0.956-2.244,3.166-5.572,3.166 c-2.389,0-4.582-1.306-5.717-3.413l-30.328-56.32h14.754l27.008,50.159C391.731,488.286,390.579,490.812,390.016,491.768z"/> </g> </g><g> <g> <path d="M273.067,418.133h-34.133c-4.71,0-8.533,3.823-8.533,8.533v61.773c0,12.996,10.564,23.561,23.561,23.561h4.079 c12.988,0,23.561-10.564,23.561-23.561v-61.773C281.6,421.956,277.777,418.133,273.067,418.133z M264.533,488.439 c0,3.584-2.91,6.494-6.494,6.494h-4.079c-3.584,0-6.494-2.91-6.494-6.494V435.2h17.067V488.439z"/> </g> </g><g> <g> <path d="M185.207,422.289c-1.536-2.577-4.318-4.156-7.322-4.156h-34.133c-3.132,0-6.025,1.724-7.509,4.48l-29.431,54.656 c-3.968,7.373-3.772,16.068,0.521,23.253c4.292,7.185,11.853,11.477,20.224,11.477c8.687,0,16.631-4.753,20.736-12.39 l37.103-68.898C186.82,428.066,186.752,424.866,185.207,422.289z M133.274,491.52c-1.135,2.108-3.328,3.413-5.717,3.413 c-3.319,0-5.018-2.219-5.581-3.166c-0.563-0.947-1.724-3.482-0.145-6.409l27.017-50.159h14.754L133.274,491.52z"/> </g> </g></symbol><symbol id="delivery-truck" viewBox="0 -82 481.44 481"><title>delivery-truck</title><path d="m445.609375 124.929688c-.769531-.738282-1.652344-1.347657-2.617187-1.804688l-35.398438-52.980469c-9.246094-13.996093-24.910156-22.410156-41.6875-22.390625h-46.796875c-1.34375-26.605468-23.292969-47.5-49.9375-47.535156h-259.171875c-5.523438 0-10 4.476562-10 10v245.722656c0 5.523438 4.476562 10 10 10h33.421875c4.753906 28.996094 29.808594 50.277344 59.191406 50.277344 29.378907 0 54.433594-21.28125 59.191407-50.277344h145.199218c4.753906 28.996094 29.808594 50.28125 59.191406 50.28125 29.378907 0 54.4375-21.285156 59.191407-50.28125h46.054687c5.519532 0 10-4.476562 10-10v-75.210937c-.03125-13.570313-5.546875-26.550781-15.292968-35.992188zm-54.667969-43.710938 27.332032 40.90625h-99.097657v-54.371094h46.730469c10.078125-.007812 19.488281 5.050782 25.035156 13.464844zm-288.328125 215c-22.085937 0-39.988281-17.902344-39.988281-39.988281 0-22.085938 17.902344-39.988281 39.988281-39.988281 22.085938 0 39.988281 17.902343 39.988281 39.988281-.023437 22.074219-17.914062 39.964843-39.988281 39.988281zm263.578125 0c-22.085937 0-39.988281-17.902344-39.988281-39.988281 0-22.085938 17.902344-39.988281 39.988281-39.988281 22.085938 0 39.988282 17.902343 39.988282 39.988281-.023438 22.074219-17.914063 39.964843-39.988282 39.988281zm95.25-50.277344h-36.160156c-4.996094-28.726562-29.929688-49.703125-59.089844-49.703125s-54.09375 20.976563-59.085937 49.703125h-145.402344c-4.996094-28.726562-29.929687-49.699218-59.085937-49.699218-29.160157 0-54.09375 20.972656-59.089844 49.699218h-23.527344v-225.722656h249.171875c16.5625.019531 29.980469 13.441406 30 30v81.910156c0 5.523438 4.476563 10 10 10h125.460937l17.632813 17.007813c5.847656 5.664062 9.15625 13.449219 9.175781 21.59375zm0 0"/><path d="m230.335938 60.171875-80.414063 80.882813-43.875-44.316407c-3.886719-3.925781-10.21875-3.957031-14.144531-.074219-3.925782 3.886719-3.957032 10.21875-.070313 14.144532l50.96875 51.480468c1.875 1.894532 4.433594 2.964844 7.097657 2.964844h.011718c2.664063 0 5.214844-1.0625 7.09375-2.949218l87.519532-88.035157c2.554687-2.527343 3.558593-6.230469 2.628906-9.703125-.929688-3.46875-3.648438-6.175781-7.128906-7.085937-3.476563-.910157-7.171876.117187-9.683594 2.6875zm0 0"/></symbol><symbol id="menu" viewBox="0 0 490 490"><title>menu</title><path d="M338.137,85.049V0L70.623,85.291l0,0V490h348.754V85.049H338.137z M317.449,28.316v56.733H139.503L317.449,28.316z M398.688,469.311H91.312V105.737h307.377V469.311z"/><polygon points="135.657,205.161 150.929,236.193 158.485,236.193 173.836,205.161 173.836,240.903 186.509,240.903 186.509,184.117 169.452,184.117 154.744,215.315 140.126,184.117 122.984,184.117 122.984,240.903 135.657,240.903 "/><polygon points="242.319,229.693 213.158,229.693 213.158,217.913 238.584,217.913 238.584,207.107 213.158,207.107 213.158,195.409 241.427,195.409 241.427,184.117 200.484,184.117 200.484,240.903 242.319,240.903 "/><polygon points="266.284,205.322 293.336,240.903 306.01,240.903 306.01,184.117 293.336,184.117 293.336,220.676 265.471,184.117 253.611,184.117 253.611,240.903 266.284,240.903 "/><path d="M343.534,241.471c7.093,0,12.917-2.205,17.465-6.621c4.548-4.413,6.823-10.736,6.823-18.966v-31.767h-12.674v31.36 c0,4.548-1.038,8.138-3.126,10.762c-2.083,2.627-4.912,3.94-8.489,3.94c-3.57,0-6.414-1.313-8.529-3.94 c-2.108-2.624-3.166-6.214-3.166-10.762v-31.36h-12.673v31.767c0,8.177,2.287,14.487,6.862,18.927 C330.603,239.25,336.44,241.471,343.534,241.471z"/><rect x="129.219" y="285.391" width="231.158" height="20.689"/><rect x="129.219" y="346.674" width="231.158" height="20.689"/><rect x="129.219" y="407.957" width="231.158" height="20.689"/></symbol><symbol id="instagram" viewBox="0 0 512.00096 512.00096"><title>instagram</title><path d="m373.40625 0h-234.8125c-76.421875 0-138.59375 62.171875-138.59375 138.59375v234.816406c0 76.417969 62.171875 138.589844 138.59375 138.589844h234.816406c76.417969 0 138.589844-62.171875 138.589844-138.589844v-234.816406c0-76.421875-62.171875-138.59375-138.59375-138.59375zm108.578125 373.410156c0 59.867188-48.707031 108.574219-108.578125 108.574219h-234.8125c-59.871094 0-108.578125-48.707031-108.578125-108.574219v-234.816406c0-59.871094 48.707031-108.578125 108.578125-108.578125h234.816406c59.867188 0 108.574219 48.707031 108.574219 108.578125zm0 0"/><path d="m256 116.003906c-77.195312 0-139.996094 62.800782-139.996094 139.996094s62.800782 139.996094 139.996094 139.996094 139.996094-62.800782 139.996094-139.996094-62.800782-139.996094-139.996094-139.996094zm0 249.976563c-60.640625 0-109.980469-49.335938-109.980469-109.980469 0-60.640625 49.339844-109.980469 109.980469-109.980469 60.644531 0 109.980469 49.339844 109.980469 109.980469 0 60.644531-49.335938 109.980469-109.980469 109.980469zm0 0"/><path d="m399.34375 66.285156c-22.8125 0-41.367188 18.558594-41.367188 41.367188 0 22.8125 18.554688 41.371094 41.367188 41.371094s41.371094-18.558594 41.371094-41.371094-18.558594-41.367188-41.371094-41.367188zm0 52.71875c-6.257812 0-11.351562-5.09375-11.351562-11.351562 0-6.261719 5.09375-11.351563 11.351562-11.351563 6.261719 0 11.355469 5.089844 11.355469 11.351563 0 6.257812-5.09375 11.351562-11.355469 11.351562zm0 0"/></symbol><symbol id="facebook" viewBox="0 0 512 512"><title>facebook</title><g transform="translate(1 1)"> <g> <path d="M468.333-1H41.667C17.773-1-1,17.773-1,41.667v426.667C-1,492.227,17.773,511,41.667,511h196.267h102.4h128 C492.227,511,511,492.227,511,468.333V41.667C511,17.773,492.227-1,468.333-1z M255,493.933V323.267h-68.267V255H255v-59.733 c0-48.64,37.547-89.6,85.333-93.867h76.8v68.267h-68.267c-14.507,0-25.6,11.093-25.6,25.6V255H408.6v68.267h-85.333v170.667H255z M493.933,468.333c0,14.507-11.093,25.6-25.6,25.6h-128v-153.6h85.333v-102.4h-85.333v-42.667c0-5.12,3.413-8.533,8.533-8.533 H434.2v-102.4h-94.72c-57.173,5.12-101.547,53.76-101.547,110.933v42.667h-68.267v102.4h68.267v153.6H41.667 c-14.507,0-25.6-11.093-25.6-25.6V41.667c0-14.507,11.093-25.6,25.6-25.6h426.667c14.507,0,25.6,11.093,25.6,25.6V468.333z"/> </g> </g></symbol><symbol id="youtube" viewBox="0 0 334.623 334.623"><title>youtube</title><path d="M175.329,287.017C175.322,287.017,175.329,287.017,175.329,287.017c-38.053,0-79.481-1.202-123.125-3.554 c-25.784-1.414-45.785-21.292-48.632-48.349c-4.762-45.2-4.762-90.83,0-135.625c2.841-26.832,22.815-46.71,48.574-48.33 c75.271-4.737,152.721-4.737,230.312,0c26.061,1.581,45.586,20.99,48.6,48.304c4.749,43.246,4.756,88.87,0.006,135.632 c-2.744,27.038-22.25,46.472-48.535,48.356C249.45,285.815,213.382,287.017,175.329,287.017z M166.428,60.452 c-37.931,0-76.113,1.195-113.485,3.541c-19.685,1.234-34.39,16.048-36.594,36.851c-4.666,43.895-4.666,88.613,0,132.926 c2.204,20.971,16.89,35.778,36.543,36.858c43.413,2.339,84.609,3.535,122.425,3.535c37.751,0,73.51-1.189,106.287-3.528 c19.833-1.427,34.57-16.228,36.659-36.839c4.666-45.862,4.666-90.58,0.006-132.926c-2.294-20.868-17.005-35.688-36.594-36.877 C243.145,61.641,204.365,60.452,166.428,60.452z M134.576,121.783v88.208l84.706-43.805L134.576,121.783z"/></symbol><symbol id="medium" viewBox="0 0 512 512"><title>medium</title><path d="M511.981,118.509c-0.135-2.956-1.892-5.726-4.565-7.04l-159.24-79.62c-3.776-1.887-8.363-0.64-10.664,2.898 L229.916,200.282l-55.413-85.891c-0.796-1.235-1.945-2.264-3.259-2.922l-159.24-79.62C6.582,29.138,0,33.218,0,39.268v79.621 c0,4.581,3.712,8.294,8.294,8.294c4.581,0,8.294-3.712,8.294-8.294V52.687l142.652,71.326v335.32L16.587,388.008V154.277 c0-4.581-3.712-8.294-8.294-8.294c-4.581,0-8.294,3.712-8.294,8.294v238.857c0,3.142,1.775,6.013,4.585,7.418l159.24,79.62 c5.427,2.714,12.003-1.375,12.003-7.418V318.087l324.17,162.085c5.427,2.714,12.003-1.375,12.003-7.418V118.888 C512,118.76,511.987,118.636,511.981,118.509z M175.827,299.541v-152.5l145.239,225.12L175.827,299.541z M495.413,459.335 l-139.34-69.671l108.576-186.993c2.299-3.961,0.952-9.037-3.009-11.337c-3.96-2.298-9.036-0.953-11.337,3.009L344.094,377.258 L239.77,215.555L347.383,49.998l144.717,72.359l-26.387,45.446c-2.299,3.961-0.952,9.037,3.009,11.337 c3.958,2.297,9.035,0.953,11.337-3.009l15.354-26.443V459.335z"/></symbol></svg>